<svg width="80" height="80" viewBox="0 0 80 80" fill="none" xmlns="http://www.w3.org/2000/svg">
    <path d="M29.5668 13.3325H22.6103C21.6503 13.3325 20.8711 14.0792 20.8711 14.9993V21.666C20.8711 22.586 21.6503 23.3328 22.6103 23.3328H29.5668C30.5268 23.3328 31.306 22.586 31.306 21.666V14.9993C31.306 14.0792 30.5268 13.3325 29.5668 13.3325ZM27.8278 19.9993H24.3496V16.666H27.8278V19.9993Z"
          fill="#3B7F6F"/>
    <path d="M29.5668 39.9991H22.6103C21.6503 39.9991 20.8711 40.7459 20.8711 41.6659V48.3327C20.8711 49.2527 21.6503 49.9994 22.6103 49.9994H29.5668C30.5268 49.9994 31.306 49.2527 31.306 48.3327V41.6659C31.306 40.7457 30.5268 39.9991 29.5668 39.9991ZM27.8278 46.6658H24.3496V43.3325H27.8278V46.6658Z"
          fill="#3B7F6F"/>
    <path d="M29.5668 26.6659H22.6103C21.6503 26.6659 20.8711 27.4126 20.8711 28.3326V34.9994C20.8711 35.9194 21.6503 36.6661 22.6103 36.6661H29.5668C30.5268 36.6661 31.306 35.9194 31.306 34.9994V28.3326C31.306 27.4126 30.5268 26.6659 29.5668 26.6659ZM27.8278 33.3327H24.3496V29.9994H27.8278V33.3327Z"
          fill="#3B7F6F"/>
    <path d="M29.5668 53.3334H22.6103C21.6503 53.3334 20.8711 54.0801 20.8711 55.0001V61.6669C20.8711 62.5869 21.6503 63.3336 22.6103 63.3336H29.5668C30.5268 63.3336 31.306 62.5869 31.306 61.6669V55.0001C31.306 54.0801 30.5268 53.3334 29.5668 53.3334ZM27.8278 60.0002H24.3496V56.6668H27.8278V60.0002Z"
          fill="#3B7F6F"/>
    <path d="M43.477 53.3334H36.5204C35.5604 53.3334 34.7812 54.0801 34.7812 55.0001V61.6669C34.7812 62.5869 35.5604 63.3336 36.5204 63.3336H43.477C44.437 63.3336 45.2162 62.5869 45.2162 61.6669V55.0001C45.216 54.0801 44.437 53.3334 43.477 53.3334ZM41.7378 60.0002H38.2596V56.6668H41.7378V60.0002Z"
          fill="#3B7F6F"/>
    <path d="M34.7812 14.9993V21.666C34.7812 22.586 35.5604 23.3328 36.5204 23.3328H43.477C44.437 23.3328 45.2162 22.586 45.2162 21.666V14.9993C45.2162 14.0792 44.437 13.3325 43.477 13.3325H36.5204C35.5604 13.3325 34.7812 14.0792 34.7812 14.9993ZM38.2596 16.6658H41.7378V19.9991H38.2596V16.6658Z"
          fill="#3B7F6F"/>
    <path d="M50.4345 49.9994H57.3911C58.3511 49.9994 59.1303 49.2527 59.1303 48.3327V41.6659C59.1303 40.7459 58.3511 39.9991 57.3911 39.9991H50.4345C49.4745 39.9991 48.6953 40.7459 48.6953 41.6659V48.3327C48.6955 49.2527 49.4745 49.9994 50.4345 49.9994ZM52.1737 43.3326H55.6519V46.6659H52.1737V43.3326Z"
          fill="#3B7F6F"/>
    <path d="M78.2608 13.3326H66.0869V8.33254C66.0869 7.58925 65.5721 6.93581 64.8242 6.72925L40.4765 0.0624616C40.1669 -0.0208205 39.8365 -0.0208205 39.5235 0.0624616L15.1756 6.72925C14.4277 6.93597 13.913 7.58925 13.913 8.33254V13.3326H1.73918C0.779184 13.3326 0 14.0793 0 14.9993V78.3332C0 79.2532 0.779184 80 1.73918 80H78.2608C79.2208 80 80 79.2532 80 78.3332V14.9993C80 14.0793 79.2208 13.3326 78.2608 13.3326ZM13.913 19.9994H8.69559C7.73559 19.9994 6.95641 20.7461 6.95641 21.6661C6.95641 22.5861 7.73559 23.3328 8.69559 23.3328H13.913V29.9996H8.69559C7.73559 29.9996 6.95641 30.7464 6.95641 31.6664C6.95641 32.5864 7.73559 33.3331 8.69559 33.3331H13.913V39.9999H8.69559C7.73559 39.9999 6.95641 40.7466 6.95641 41.6666C6.95641 42.5866 7.73559 43.3334 8.69559 43.3334H13.913V50.0001H8.69559C7.73559 50.0001 6.95641 50.7469 6.95641 51.6669C6.95641 52.5869 7.73559 53.3336 8.69559 53.3336H13.913V60.0004H8.69559C7.73559 60.0004 6.95641 60.7471 6.95641 61.6671C6.95641 62.5871 7.73559 63.3339 8.69559 63.3339H13.913V70.0007H8.69559C7.73559 70.0007 6.95641 70.7474 6.95641 71.6674C6.95641 72.5874 7.73559 73.3341 8.69559 73.3341H13.913V76.6674H3.4782V16.6668H13.913V19.9994ZM48.6957 76.6665H31.3043V69.9997H48.6957V76.6665ZM62.6087 76.6665H52.1739V68.3331C52.1739 67.4131 51.3947 66.6664 50.4347 66.6664H29.5651C28.6051 66.6664 27.826 67.4131 27.826 68.3331V76.6665H17.3912V9.58927L39.9999 3.39921L62.6087 9.58927V76.6665ZM76.5216 76.6665H66.0869V73.3332H71.3042C72.2642 73.3332 73.0434 72.5865 73.0434 71.6665C73.0434 70.7464 72.2642 69.9997 71.3042 69.9997H66.0869V63.3329H71.3042C72.2642 63.3329 73.0434 62.5862 73.0434 61.6662C73.0434 60.7462 72.2642 59.9995 71.3042 59.9995H66.0869V53.3327H71.3042C72.2642 53.3327 73.0434 52.586 73.0434 51.6659C73.0434 50.7459 72.2642 49.9992 71.3042 49.9992H66.0869V43.3324H71.3042C72.2642 43.3324 73.0434 42.5857 73.0434 41.6657C73.0434 40.7457 72.2642 39.999 71.3042 39.999H66.0869V33.3322H71.3042C72.2642 33.3322 73.0434 32.5854 73.0434 31.6654C73.0434 30.7454 72.2642 29.9987 71.3042 29.9987H66.0869V23.3319H71.3042C72.2642 23.3319 73.0434 22.5852 73.0434 21.6652C73.0434 20.7452 72.2642 19.9984 71.3042 19.9984H66.0869V16.6651H76.5216V76.6665Z"
          fill="#3B7F6F"/>
    <path d="M50.4345 63.3328H57.3911C58.3511 63.3328 59.1303 62.586 59.1303 61.666V54.9993C59.1303 54.0792 58.3511 53.3325 57.3911 53.3325H50.4345C49.4745 53.3325 48.6953 54.0792 48.6953 54.9993V61.666C48.6955 62.586 49.4745 63.3328 50.4345 63.3328ZM52.1737 56.666H55.6519V59.9993H52.1737V56.666Z"
          fill="#3B7F6F"/>
    <path d="M43.477 39.9991H36.5204C35.5604 39.9991 34.7812 40.7459 34.7812 41.6659V48.3327C34.7812 49.2527 35.5604 49.9994 36.5204 49.9994H43.477C44.437 49.9994 45.2162 49.2527 45.2162 48.3327V41.6659C45.216 40.7457 44.437 39.9991 43.477 39.9991ZM41.7378 46.6658H38.2596V43.3325H41.7378V46.6658Z"
          fill="#3B7F6F"/>
    <path d="M43.477 26.6659H36.5204C35.5604 26.6659 34.7812 27.4126 34.7812 28.3326V34.9994C34.7812 35.9194 35.5604 36.6661 36.5204 36.6661H43.477C44.437 36.6661 45.2162 35.9194 45.2162 34.9994V28.3326C45.216 27.4126 44.437 26.6659 43.477 26.6659ZM41.7378 33.3327H38.2596V29.9994H41.7378V33.3327Z"
          fill="#3B7F6F"/>
    <path d="M50.4345 36.6661H57.3911C58.3511 36.6661 59.1303 35.9194 59.1303 34.9994V28.3326C59.1303 27.4126 58.3511 26.6659 57.3911 26.6659H50.4345C49.4745 26.6659 48.6953 27.4126 48.6953 28.3326V34.9994C48.6955 35.9196 49.4745 36.6661 50.4345 36.6661ZM52.1737 29.9995H55.6519V33.3328H52.1737V29.9995Z"
          fill="#3B7F6F"/>
    <path d="M50.4345 23.3326H57.3911C58.3511 23.3326 59.1303 22.5859 59.1303 21.6659V14.9993C59.1303 14.0792 58.3511 13.3325 57.3911 13.3325H50.4345C49.4745 13.3325 48.6953 14.0792 48.6953 14.9993V21.666C48.6955 22.5859 49.4745 23.3326 50.4345 23.3326ZM52.1737 16.6658H55.6519V19.9991H52.1737V16.6658Z"
          fill="#3B7F6F"/>
</svg>
