<svg width="30" height="30" viewBox="0 0 30 30" fill="none" xmlns="http://www.w3.org/2000/svg">
    <path d="M15.181 22.8143C14.2248 22.8143 13.393 22.4265 12.8246 21.7103C12.295 21.0437 12.0697 20.165 12.2055 19.2988L12.8579 15.1436L12.7073 15.221C11.953 15.6088 11.0268 15.3116 10.639 14.5572C10.2512 13.8028 10.5484 12.8766 11.3028 12.4888L14.1419 11.0292C14.6562 10.7646 15.2753 10.8116 15.7439 11.1503C16.2124 11.489 16.4513 12.0623 16.3613 12.6334L15.2459 19.7374C15.4695 19.7139 16.0461 19.5732 17.1195 18.8276C17.8161 18.3432 18.7733 18.5156 19.2572 19.2121C19.7415 19.9086 19.5692 20.8659 18.8726 21.3497C17.5313 22.2825 16.381 22.7597 15.3566 22.8099C15.2977 22.8132 15.2388 22.8143 15.181 22.8143Z"
          fill="#3B7F6F"/>
    <path d="M15.437 9.75099C16.3838 9.75099 17.1514 8.98345 17.1514 8.03663C17.1514 7.08981 16.3838 6.32227 15.437 6.32227C14.4902 6.32227 13.7227 7.08981 13.7227 8.03663C13.7227 8.98345 14.4902 9.75099 15.437 9.75099Z"
          fill="#3B7F6F"/>
    <path d="M15 30C6.72873 30 0 23.2713 0 15C0 6.72873 6.72873 0 15 0C23.2713 0 30 6.72927 30 15C30 23.2707 23.2707 30 15 30ZM15 3.072C8.42291 3.072 3.072 8.42291 3.072 15C3.072 21.5771 8.42291 26.928 15 26.928C21.5771 26.928 26.928 21.5771 26.928 15C26.928 8.42291 21.5771 3.072 15 3.072Z"
          fill="#3B7F6F"/>
</svg>
