<svg width="30" height="30" viewBox="0 0 30 30" fill="none" xmlns="http://www.w3.org/2000/svg">
    <path d="M29.4653 5.2672C29.4653 5.2672 25.6047 9.12521 24.5905 10.152C24.3948 10.3503 24.2017 10.4134 23.941 10.3734C23.5998 10.3213 23.2559 10.2858 22.9132 10.2448C21.9752 10.1331 21.037 10.0223 20.0818 9.90902C19.9224 8.54547 19.7605 7.20887 19.62 5.86997C19.6068 5.74398 19.6964 5.57216 19.7923 5.47519C20.9603 4.29268 24.2289 1.03284 24.7078 0.55537C23.6694 0.0650002 21.8877 -0.128245 20.56 0.0875725C15.5383 0.903627 12.4722 5.9241 14.063 10.7403C14.1505 11.0049 14.0957 11.1595 13.9068 11.3481C9.64935 15.594 5.39837 19.8459 1.14717 24.0977C1.00527 24.2396 0.863613 24.3833 0.737385 24.5383C-0.47514 26.0293 -0.154733 28.2844 1.42242 29.3798C2.81462 30.3465 4.56845 30.1726 5.81115 28.9312C10.0803 24.6657 14.3474 20.3982 18.609 16.1254C18.8207 15.9132 18.9888 15.8409 19.298 15.9462C20.7235 16.4319 22.1828 16.4884 23.6477 16.1498C28.1132 15.1184 30.8462 10.6836 29.7631 6.23781C29.6901 5.93815 29.583 5.64149 29.4653 5.2672Z"
          fill="#3B7F6F"/>
</svg>
