<svg width="30" height="30" viewBox="0 0 30 30" fill="none" xmlns="http://www.w3.org/2000/svg">
    <path d="M21.665 24.9238C21.6665 24.9204 21.6764 24.8963 21.7451 24.7295L21.6133 24.8994L15.7109 21.6328L15.0518 21.2686L15.6436 20.8027C16.6345 20.0239 17.2886 18.8472 17.6943 17.6006C18.099 16.3573 18.2422 15.0877 18.2422 14.1826V10.2285C18.2422 9.13059 17.4962 7.87554 16.249 6.86816C15.0147 5.87121 13.378 5.19349 11.7617 5.19336C10.1449 5.19336 8.48308 5.87123 7.22461 6.87012C5.95204 7.8803 5.18848 9.13588 5.18848 10.2285V14.1826C5.18848 14.9885 5.362 16.2384 5.80371 17.498C6.24638 18.7603 6.94111 19.9824 7.94922 20.79L8.53711 21.2617L7.875 21.6201L1.82031 24.9014L1.80273 24.9111L1.78516 24.9189H1.78418C1.78235 24.9198 1.77898 24.9217 1.77441 24.9238C1.76527 24.9281 1.75117 24.9352 1.73242 24.9443C1.69459 24.9627 1.63851 24.9902 1.57129 25.0264C1.43576 25.0993 1.25838 25.2031 1.08398 25.3291C0.906725 25.4572 0.749163 25.5957 0.640625 25.7344C0.530713 25.8748 0.500127 25.9774 0.5 26.0439V28.418C0.500174 29.015 0.985858 29.5 1.58203 29.5H21.8555C22.4526 29.4998 22.9383 29.0147 22.9385 28.418V26.0439C22.9384 25.9579 22.9014 25.8477 22.7949 25.71C22.6881 25.5718 22.5336 25.4361 22.3584 25.3125C22.1857 25.1907 22.0094 25.0919 21.875 25.0234C21.8088 24.9897 21.754 24.9641 21.7168 24.9473C21.6982 24.9388 21.6837 24.9325 21.6748 24.9287C21.6707 24.9269 21.6678 24.9255 21.666 24.9248L21.665 24.9238ZM21.665 24.9238H21.6641H21.665ZM22.0635 26.1709L21.8477 26.0215C21.7025 25.9212 21.5043 25.8061 21.3291 25.7314H21.3301C21.2819 25.7104 21.2307 25.6863 21.1973 25.668L15.2969 22.4033L15.2939 22.4014C15.0944 22.2923 14.9249 22.1356 14.8008 21.9453C14.7077 21.8026 14.6424 21.6442 14.6074 21.4785L14.583 21.3096C14.5644 21.0835 14.6018 20.8565 14.6924 20.6484C14.7832 20.4399 14.9246 20.2569 15.1035 20.1162L15.1025 20.1152C16.027 19.3886 16.5864 18.2584 16.916 17.1719C17.2481 16.0768 17.3681 14.9601 17.3682 14.1836V10.2285C17.3682 9.74961 17.1644 9.25265 16.8691 8.80176C16.5685 8.34267 16.1452 7.88911 15.6406 7.48926C14.6353 6.69253 13.2526 6.06641 11.7617 6.06641C10.2939 6.06641 8.8899 6.70146 7.86035 7.49707C7.34291 7.89696 6.9044 8.34981 6.59082 8.80566C6.28437 9.25119 6.06445 9.74815 6.06445 10.2285V14.1836C6.06452 14.9893 6.24443 16.114 6.62598 17.2021C6.98171 18.2166 7.53281 19.258 8.33398 19.9717L8.49707 20.1094C8.8559 20.3971 9.04763 20.846 9.00684 21.3037C8.97112 21.7037 8.76118 22.0655 8.4375 22.2969L8.29199 22.3877L2.2373 25.668L2.22754 25.6738C2.20598 25.6862 2.17801 25.7003 2.1377 25.7188C1.95472 25.8026 1.73786 25.9338 1.58105 26.0479L1.375 26.1973V28.627H22.0635V26.1709ZM28.625 21.5068L28.4092 21.3584C28.2642 21.2582 28.0658 21.143 27.8906 21.0684H27.8916C27.8436 21.0474 27.792 21.0231 27.7588 21.0049H27.7578L21.7676 17.7383H21.7686C21.5688 17.6292 21.3986 17.4727 21.2744 17.2822C21.1812 17.1393 21.116 16.9804 21.0811 16.8145L21.0566 16.6465C21.038 16.4202 21.0753 16.1926 21.166 15.9844C21.2568 15.776 21.3984 15.5938 21.5771 15.4531C22.4974 14.7298 23.0784 13.6037 23.4307 12.5176C23.7854 11.4238 23.9287 10.3041 23.9287 9.51953V5.56543C23.9287 5.08215 23.7172 4.58106 23.4141 4.12891C23.1049 3.66775 22.671 3.21116 22.1562 2.80859C21.1311 2.0069 19.7267 1.37402 18.2354 1.37402C16.8573 1.37407 15.5779 1.80908 14.5391 2.55176C14.1769 2.46115 13.797 2.41294 13.4277 2.38281C14.7145 1.28147 16.5019 0.500052 18.2354 0.5C19.8513 0.5 21.5117 1.18425 22.7695 2.19043C24.0412 3.20774 24.8036 4.47057 24.8037 5.56445V9.51953C24.8037 10.4181 24.641 11.6852 24.2148 12.9297C23.7877 14.1772 23.1114 15.3572 22.1172 16.1387L21.5215 16.6074L22.1875 16.9707L28.1777 20.2373L28.8457 20.6016C28.8699 20.6177 28.8958 20.6324 28.9199 20.6494C29.0951 20.773 29.2496 20.9086 29.3564 21.0469C29.4632 21.185 29.5 21.2954 29.5 21.3818V23.7256C29.5 24.3226 29.0143 24.8086 28.417 24.8086H25.6846C25.5994 24.5078 25.5063 24.2118 25.3701 23.9355H28.625V21.5068Z"
          fill="#212121" stroke="#3B7F6F"/>
</svg>
