<svg width="32" height="32" viewBox="0 0 32 32" fill="none" xmlns="http://www.w3.org/2000/svg">
    <path d="M27.6052 2.3001C27.7132 2.1925 27.7621 2.03905 27.7358 1.88935C27.7095 1.73964 27.6118 1.61146 27.4728 1.5469C25.3207 0.536386 22.7666 0.979887 21.0871 2.66126C19.492 4.2603 18.935 6.7716 19.679 8.87122L8.8398 19.6678C8.25083 19.4582 7.62147 19.3534 6.96486 19.3534C5.35481 19.3534 3.79361 19.9915 2.68236 21.1049C1.00844 22.7816 0.536887 25.2593 1.47906 27.4178C1.54105 27.56 1.66974 27.663 1.82286 27.691C1.97691 27.72 2.13378 27.6714 2.24275 27.561L5.52202 24.2778C5.73807 24.0607 6.08657 24.0317 6.26692 24.2141L7.68252 25.6897C7.88824 25.8964 7.87885 26.2155 7.66186 26.4335L4.3948 29.7083C4.28677 29.8159 4.23887 29.9694 4.26517 30.1191C4.29147 30.2688 4.38916 30.396 4.52725 30.4606C5.30597 30.8264 6.12508 31.0107 6.9611 31.0107C8.43776 31.0107 9.84021 30.4194 10.9129 29.3453C12.508 27.7472 13.065 25.2359 12.3201 23.1362L23.1593 12.3388C23.7492 12.5484 24.3785 12.6531 25.0351 12.6531C26.6452 12.6531 28.2064 12.015 29.3176 10.9016C30.9916 9.2249 31.4631 6.74728 30.5209 4.58872C30.459 4.4465 30.3303 4.34357 30.1771 4.3155C30.0259 4.28931 29.8672 4.33515 29.7573 4.44556L26.478 7.72878C26.276 7.93088 25.9332 7.92901 25.7256 7.71943L24.3175 6.31688C24.1052 6.10448 24.1061 5.78542 24.3165 5.57396L27.6052 2.3001ZM23.6524 6.97839L25.0605 8.38094C25.6232 8.9442 26.5869 8.94701 27.144 8.38936L29.8963 5.63478C30.3368 7.26376 29.8812 9.01157 28.6526 10.2438C27.716 11.1823 26.3991 11.7194 25.0361 11.7194C24.3945 11.7194 23.7867 11.5996 23.2297 11.3638C23.0531 11.288 22.8493 11.3292 22.714 11.463L11.4418 22.6909C11.3065 22.8256 11.2671 23.0277 11.3413 23.2027C12.0956 24.9898 11.6362 27.2962 10.2488 28.6866C9.00795 29.9291 7.20158 30.3717 5.56617 29.8636L8.3288 27.0941C8.91213 26.5093 8.92153 25.6026 8.35604 25.0375L6.94138 23.562C6.39561 23.0146 5.42527 23.0483 4.8579 23.62L2.1056 26.3746C1.66505 24.7456 2.12063 22.9978 3.3493 21.7655C4.28583 20.827 5.6028 20.29 6.9658 20.29C7.60738 20.29 8.21514 20.4097 8.77217 20.6455C8.94783 20.7223 9.15261 20.6801 9.28787 20.5464L20.5601 9.31846C20.6953 9.18373 20.7348 8.98163 20.6606 8.80666C19.9063 7.01955 20.3656 4.71222 21.7531 3.32184C22.993 2.07928 24.7984 1.63953 26.4329 2.14478L23.6524 4.91526C23.0738 5.49256 23.0738 6.39828 23.6524 6.97839Z"
          fill="#212121" stroke="#3B7F6F"/>
    <path d="M13.6084 15.0713L6.07715 7.53711L6.07617 7.53516C6.05643 7.51528 6.03296 7.49962 6.00781 7.4873L3.95898 6.53027L3.82227 6.46582L3.74414 6.33691L2.29102 3.95703L2.08594 3.62109L3.61133 2.0957L3.94727 2.30078L6.32715 3.75391L6.45605 3.83203L6.51953 3.96875L7.47656 6.01758L7.47754 6.01855C7.48985 6.04505 7.50577 6.07011 7.52637 6.09082L7.52734 6.08984L15.04 13.6045L15.5908 13.0293L7.98633 5.83496L7.91699 5.76953L7.87695 5.68359L6.88184 3.5498C6.86072 3.50549 6.82715 3.46783 6.78516 3.44238H6.78418L3.81934 1.63379L3.78125 1.61035L3.74707 1.58008C3.71056 1.54776 3.66541 1.52668 3.61719 1.51953L3.60449 1.51758L3.59277 1.51562C3.54001 1.50523 3.48515 1.51217 3.43652 1.53516C3.38798 1.55815 3.3477 1.59623 3.32227 1.64355L3.28711 1.70801L3.23535 1.76074L1.74121 3.25195L1.69141 3.30176L1.62988 3.33496L1.56641 3.38477C1.54823 3.40448 1.53363 3.42739 1.52246 3.45215C1.50016 3.50171 1.49402 3.55732 1.50586 3.61035L1.50879 3.62207C1.5099 3.62758 1.51123 3.63327 1.5127 3.63867L1.51953 3.66406C1.53003 3.70004 1.54722 3.73371 1.57227 3.76172L1.60352 3.7959L1.62695 3.83496L3.43262 6.79395V6.79492C3.45805 6.8369 3.49575 6.87049 3.54004 6.8916L5.67383 7.88672L5.75391 7.92383L5.81543 7.98633L13.2529 15.4268L13.6084 15.0713ZM27.9941 30.5107C28.0608 30.5107 28.1248 30.4837 28.1719 30.4365L30.4258 28.1826C30.4729 28.1355 30.4999 28.0715 30.5 28.0049V27.9785C30.4999 27.9637 30.5 27.9399 30.499 27.9082C30.4971 27.8446 30.4922 27.7485 30.4814 27.627C30.4599 27.3836 30.4139 27.0394 30.3164 26.6436C30.1202 25.8471 29.7218 24.8683 28.9229 24.0693L23.6631 18.8096C22.884 18.0304 22.0916 17.6305 21.498 17.4326C21.3645 17.3881 21.3113 17.3793 21.2793 17.375C21.257 17.372 21.2384 17.3702 21.1953 17.3662C21.1542 17.3624 21.1023 17.3574 21.0371 17.3477L20.6709 17.293L20.6162 16.9268C20.6065 16.8616 20.6014 16.8097 20.5977 16.7686C20.5937 16.7252 20.5919 16.706 20.5889 16.6836C20.5845 16.6515 20.5747 16.5982 20.5303 16.4648C20.4682 16.2788 20.3476 16.1236 20.1113 15.9062C20.0929 16.082 20.0699 16.2702 20.0596 16.373C20.0512 16.4567 20.0479 16.52 20.0488 16.5684C20.0495 16.6011 20.0517 16.6182 20.0527 16.624C20.1394 16.8839 20.1837 17.0874 20.2061 17.2334C20.2172 17.3063 20.2228 17.365 20.2256 17.4092C20.227 17.4309 20.2273 17.4492 20.2275 17.4639C20.2277 17.4711 20.2285 17.4779 20.2285 17.4834C20.2285 17.5501 20.2546 17.6149 20.3018 17.6621C20.3372 17.6975 20.3823 17.7209 20.4307 17.7305L20.4795 17.7354C20.485 17.7353 20.4917 17.7352 20.499 17.7354C20.5139 17.7356 20.5326 17.7369 20.5547 17.7383C20.5989 17.7411 20.6575 17.7466 20.7305 17.7578C20.8764 17.7802 21.0791 17.8246 21.3389 17.9111C21.8719 18.0888 22.5834 18.4408 23.3076 19.165L28.5674 24.4248C29.7977 25.6551 29.9305 27.3061 29.9551 27.7041L29.9688 27.9287L27.918 29.9795L27.6934 29.9658C27.2954 29.9412 25.6453 29.8084 24.415 28.5781L19.1543 23.3184C18.4301 22.5941 18.0781 21.8827 17.9004 21.3496C17.8139 21.09 17.7695 20.8872 17.7471 20.7412C17.7359 20.6685 17.7303 20.6096 17.7275 20.5654C17.7262 20.5434 17.7258 20.5246 17.7256 20.5098C17.7255 20.5024 17.7256 20.4958 17.7256 20.4902C17.7256 20.4236 17.6985 20.3597 17.6514 20.3125C17.6042 20.2653 17.5403 20.2383 17.4736 20.2383H17.4541C17.4393 20.238 17.4205 20.2377 17.3984 20.2363C17.3543 20.2335 17.2955 20.228 17.2227 20.2168C17.0767 20.1944 16.8739 20.15 16.6143 20.0635C16.6089 20.0625 16.5916 20.0592 16.5576 20.0586C16.5087 20.0577 16.4448 20.0619 16.3604 20.0703C16.256 20.0807 16.0668 20.1046 15.8896 20.123C16.1087 20.3578 16.2679 20.4786 16.4551 20.541C16.5889 20.5856 16.6418 20.5953 16.6738 20.5996C16.6962 20.6026 16.7153 20.6044 16.7588 20.6084C16.7998 20.6122 16.8511 20.6173 16.916 20.627L17.2822 20.6807L17.3369 21.0479C17.3466 21.1128 17.3517 21.1641 17.3555 21.2051C17.3595 21.2486 17.3612 21.2676 17.3643 21.29C17.3686 21.3221 17.3783 21.375 17.4229 21.5088C17.6207 22.1023 18.0197 22.8947 18.7988 23.6738L24.0596 28.9336C24.8585 29.7325 25.8364 30.1309 26.6328 30.3271C27.0289 30.4247 27.3737 30.4706 27.6172 30.4922C27.7384 30.5029 27.8339 30.5078 27.8975 30.5098C27.9291 30.5107 27.9529 30.5107 27.9678 30.5107H27.9941Z"
          fill="#212121" stroke="#3B7F6F"/>
</svg>
