<svg width="22" height="25" viewBox="0 0 22 25" fill="none" xmlns="http://www.w3.org/2000/svg">
    <path d="M1.99967 2.08326H17.9975V13.5415H19.9975V0H0V25H11.0006V22.9167H1.99967V2.08326Z" fill="#3B7F6F"/>
    <path d="M4 4.1665H15.9985V6.24977H4V4.1665ZM4 8.33331H13.9986V10.4166H4V8.33331ZM4 12.4998H9.99927V14.5831H4V12.4998ZM17.0003 14.5808C14.2392 14.5808 12.0009 16.9127 12.0009 19.7893C12.0009 22.6658 14.2392 24.9977 17.0003 24.9977C19.7614 24.9977 21.9997 22.6658 21.9997 19.7893C21.9997 16.9127 19.7614 14.5808 17.0003 14.5808ZM17.0003 22.9142C15.3462 22.9142 14.0008 21.5122 14.0008 19.7893C14.0008 18.066 15.3465 16.6644 17.0003 16.6644C18.6544 16.6644 19.9998 18.0663 19.9998 19.7893C20.0001 21.5122 18.6544 22.9142 17.0003 22.9142Z"
          fill="#3B7F6F"/>
    <path d="M16.1829 17.2851L16.2201 19.111L14.3942 19.0738L14.4256 20.6045L16.2516 20.6419L16.289 22.468L17.8198 22.4993L17.7826 20.6735L19.6084 20.7107L19.5773 19.1797L17.7512 19.1423L17.7138 17.3163L16.1829 17.2851Z"
          fill="#3B7F6F"/>
</svg>
