<svg width="123" height="55" viewBox="0 0 123 55" fill="none" xmlns="http://www.w3.org/2000/svg">
    <rect x="0.5" y="0.5" width="122" height="54" rx="9.5" fill="#8FC89B" fill-opacity="0.2" stroke="#8FC89B"/>
    <g filter="url(#filter0_d_6468_2264)">
        <path d="M27.9744 18.287C27.8298 18.287 27.7084 18.2427 27.6104 18.154C27.5124 18.0653 27.4634 17.9603 27.4634 17.839C27.4634 17.7177 27.4774 17.6127 27.5054 17.524L30.8024 9.033H31.9084L35.1984 17.524C35.2311 17.6127 35.2474 17.7177 35.2474 17.839C35.2474 17.9603 35.1961 18.0653 35.0934 18.154C34.9954 18.2427 34.8741 18.287 34.7294 18.287C34.4774 18.287 34.3024 18.1517 34.2044 17.881L33.2454 15.361H29.4584L28.4994 17.888C28.3828 18.154 28.2078 18.287 27.9744 18.287ZM29.8714 14.332H32.8324L31.3414 10.566L29.8714 14.332ZM37.0076 18.161C36.8536 18.161 36.7299 18.1073 36.6366 18C36.5479 17.8927 36.5036 17.7527 36.5036 17.58V11.966C36.5036 11.784 36.5503 11.6417 36.6436 11.539C36.7416 11.4363 36.8723 11.385 37.0356 11.385C37.1849 11.385 37.3039 11.4387 37.3926 11.546C37.4859 11.6487 37.5326 11.7887 37.5326 11.966V14.248H38.9256C39.0423 14.248 39.1729 14.171 39.3176 14.017C39.4623 13.8583 39.6489 13.604 39.8776 13.254C40.0549 12.9833 40.2603 12.7033 40.4936 12.414C40.7269 12.1247 41.0303 11.8773 41.4036 11.672C41.7723 11.4713 42.1783 11.371 42.6216 11.371C42.8269 11.371 42.9903 11.4153 43.1116 11.504C43.2329 11.5927 43.2936 11.7187 43.2936 11.882C43.2936 12.064 43.2329 12.197 43.1116 12.281C42.9903 12.3603 42.8316 12.4 42.6356 12.4C42.3649 12.4047 42.1129 12.5027 41.8796 12.694C41.6509 12.8853 41.3919 13.191 41.1026 13.611C40.9906 13.779 40.8903 13.926 40.8016 14.052C40.7129 14.1733 40.6313 14.2807 40.5566 14.374C40.4819 14.4673 40.4049 14.5537 40.3256 14.633C40.7269 14.8057 41.0676 15.0343 41.3476 15.319C41.6323 15.599 41.8283 15.8883 41.9356 16.187C42.0616 16.4997 42.1783 16.7353 42.2856 16.894C42.3929 17.048 42.5096 17.1273 42.6356 17.132C42.8269 17.132 42.9833 17.1763 43.1046 17.265C43.2306 17.3537 43.2936 17.4797 43.2936 17.643C43.2936 17.9883 43.0719 18.161 42.6286 18.161C42.3019 18.161 42.0243 18.098 41.7956 17.972C41.5669 17.846 41.3826 17.671 41.2426 17.447C41.1213 17.2697 41.0163 17.0877 40.9276 16.901C40.8389 16.7097 40.7293 16.5183 40.5986 16.327C40.4679 16.131 40.2836 15.942 40.0456 15.76C39.6583 15.438 39.0306 15.277 38.1626 15.277H37.5326V17.594C37.5326 17.7667 37.4859 17.9043 37.3926 18.007C37.2993 18.1097 37.1709 18.161 37.0076 18.161ZM47.2041 18.161C46.8308 18.161 46.6441 17.972 46.6441 17.594V12.512H44.5931C44.1824 12.512 43.9771 12.3393 43.9771 11.994C43.9771 11.6533 44.1824 11.483 44.5931 11.483H49.8221C50.2281 11.483 50.4311 11.6533 50.4311 11.994C50.4311 12.3393 50.2281 12.512 49.8221 12.512H47.7781V17.594C47.7781 17.7667 47.7268 17.9043 47.6241 18.007C47.5214 18.1097 47.3814 18.161 47.2041 18.161ZM57.9254 18.161C57.5847 18.161 57.4144 17.9417 57.4144 17.503V12.932L52.6054 18.063H51.6114V12.008C51.6114 11.5927 51.7817 11.385 52.1224 11.385C52.4677 11.385 52.6404 11.602 52.6404 12.036V16.663L57.4844 11.483H58.4434V17.538C58.4434 17.9533 58.2707 18.161 57.9254 18.161ZM60.4434 18.063V11.483H65.0004C65.7377 11.483 66.3234 11.6463 66.7574 11.973C67.196 12.295 67.4154 12.7547 67.4154 13.352C67.4154 13.688 67.3547 13.9657 67.2334 14.185C67.112 14.3997 66.937 14.5723 66.7084 14.703C67.1797 15.053 67.4154 15.5383 67.4154 16.159C67.4154 16.5697 67.315 16.9173 67.1144 17.202C66.9184 17.482 66.6384 17.6967 66.2744 17.846C65.915 17.9907 65.4904 18.063 65.0004 18.063H60.4434ZM61.4724 17.034H64.9024C65.8917 17.034 66.3864 16.7843 66.3864 16.285C66.3864 15.893 66.2744 15.6107 66.0504 15.438C65.831 15.2653 65.467 15.179 64.9584 15.179H61.4724V17.034ZM61.4724 14.15H64.9584C65.5184 14.15 65.8987 14.0917 66.0994 13.975C66.3 13.8583 66.4004 13.618 66.4004 13.254C66.4004 12.7593 65.901 12.512 64.9024 12.512H61.4724V14.15ZM69.7314 18.161C69.3907 18.161 69.2204 17.958 69.2204 17.552V12.008C69.2204 11.5927 69.3814 11.385 69.7034 11.385C70.0674 11.385 70.2494 11.5927 70.2494 12.008V14.066H75.0234V12.008C75.0234 11.5927 75.1937 11.385 75.5344 11.385C75.8797 11.385 76.0524 11.5927 76.0524 12.008V17.552C76.0524 17.958 75.8797 18.161 75.5344 18.161C75.1937 18.161 75.0234 17.958 75.0234 17.552V15.095H70.2494V17.552C70.2494 17.958 70.0767 18.161 69.7314 18.161ZM78.0391 18.063V12.008C78.0391 11.5927 78.2094 11.385 78.5501 11.385C78.8954 11.385 79.0681 11.5927 79.0681 12.008V14.15H82.0641C82.5634 14.15 82.9928 14.2247 83.3521 14.374C83.7114 14.5187 83.9891 14.7357 84.1851 15.025C84.3811 15.3143 84.4791 15.6737 84.4791 16.103C84.4791 16.5323 84.3811 16.8917 84.1851 17.181C83.9938 17.4703 83.7161 17.6873 83.3521 17.832C82.9928 17.9767 82.5634 18.0537 82.0641 18.063H78.0391ZM79.0681 17.034H81.9451C82.3698 17.034 82.7268 16.9733 83.0161 16.852C83.3054 16.726 83.4501 16.4927 83.4501 16.152C83.4501 15.872 83.3871 15.662 83.2611 15.522C83.1398 15.382 82.9648 15.291 82.7361 15.249C82.5121 15.2023 82.2484 15.179 81.9451 15.179H79.0681V17.034ZM85.4941 18.315C85.1581 18.315 84.9901 18.1167 84.9901 17.72V11.84C84.9901 11.6487 85.0344 11.4993 85.1231 11.392C85.2164 11.28 85.3424 11.224 85.5011 11.224C85.6644 11.224 85.7904 11.28 85.8791 11.392C85.9724 11.4993 86.0191 11.6487 86.0191 11.84V17.72C86.0191 18.1167 85.8441 18.315 85.4941 18.315ZM91.2332 18.063C90.3979 18.063 89.7282 17.986 89.2242 17.832C88.7202 17.678 88.3539 17.4167 88.1252 17.048C87.9012 16.6747 87.7892 16.1637 87.7892 15.515V14.024C87.7892 13.38 87.9012 12.8737 88.1252 12.505C88.3539 12.1317 88.7202 11.868 89.2242 11.714C89.7282 11.56 90.3979 11.483 91.2332 11.483H91.6392C92.4745 11.483 93.1442 11.5623 93.6482 11.721C94.1522 11.875 94.5162 12.1387 94.7402 12.512C94.9642 12.8807 95.0762 13.3847 95.0762 14.024V14.717H88.8182V15.487C88.8182 15.9257 88.8789 16.257 89.0002 16.481C89.1215 16.7003 89.3549 16.8473 89.7002 16.922C90.0502 16.9967 90.5612 17.034 91.2332 17.034H93.3192C93.5619 17.034 93.7252 16.9873 93.8092 16.894C93.8979 16.796 93.9422 16.621 93.9422 16.369C93.9422 16.159 93.9889 15.9957 94.0822 15.879C94.1755 15.7623 94.3015 15.704 94.4602 15.704C94.6235 15.7087 94.7495 15.7717 94.8382 15.893C94.9269 16.0097 94.9712 16.1777 94.9712 16.397C94.9712 16.7563 94.9199 17.062 94.8172 17.314C94.7145 17.5613 94.5489 17.748 94.3202 17.874C94.0915 18 93.7905 18.063 93.4172 18.063H91.2332ZM88.8182 13.688H94.0402C94.0029 13.2213 93.8442 12.9133 93.5642 12.764C93.3962 12.6707 93.1489 12.6053 92.8222 12.568C92.5002 12.5307 92.1059 12.512 91.6392 12.512H91.2332C90.7432 12.512 90.3372 12.5307 90.0152 12.568C89.6932 12.6053 89.4505 12.6683 89.2872 12.757C89.0025 12.9063 88.8462 13.2167 88.8182 13.688Z"
              fill="#212121"/>
    </g>
    <path d="M29.0002 27.0832H45V38.5416H46.9999V25H27V49.9997H37.9965V47.9165H29.0002V27.0832Z" fill="#0F773D"/>
    <path d="M31 29.1666H43V31.2498H31V29.1666ZM31 33.3333H40.9998V35.4166H31V33.3333ZM31 37.4998H37V39.583H31V37.4998ZM43.9997 39.5833C41.2382 39.5833 38.9996 41.9152 38.9996 44.7917C38.9996 47.6682 41.2382 50.0001 43.9997 50.0001C46.7611 50.0001 48.9997 47.6682 48.9997 44.7917C48.9997 41.9152 46.7614 39.5833 43.9997 39.5833ZM43.9997 47.9166C42.3454 47.9166 40.9998 46.5146 40.9998 44.7917C40.9998 43.0685 42.3457 41.6668 43.9997 41.6668C45.654 41.6668 46.9995 43.0688 46.9995 44.7917C46.9998 46.5146 45.654 47.9166 43.9997 47.9166Z"
          fill="#0F773D"/>
    <path d="M44.7501 42.6315H43.25V45.1172L45.1474 47.0757L46.2031 45.966L44.7501 44.4661V42.6315Z" fill="#0F773D"/>
    <defs>
        <filter id="filter0_d_6468_2264" x="24.4629" y="7.03302" width="75.6133" height="17.282"
                filterUnits="userSpaceOnUse" color-interpolation-filters="sRGB">
            <feFlood flood-opacity="0" result="BackgroundImageFix"/>
            <feColorMatrix in="SourceAlpha" type="matrix" values="0 0 0 0 0 0 0 0 0 0 0 0 0 0 0 0 0 0 127 0"
                           result="hardAlpha"/>
            <feOffset dx="1" dy="2"/>
            <feGaussianBlur stdDeviation="2"/>
            <feComposite in2="hardAlpha" operator="out"/>
            <feColorMatrix type="matrix" values="0 0 0 0 0 0 0 0 0 0 0 0 0 0 0 0 0 0 0.25 0"/>
            <feBlend mode="normal" in2="BackgroundImageFix" result="effect1_dropShadow_6468_2264"/>
            <feBlend mode="normal" in="SourceGraphic" in2="effect1_dropShadow_6468_2264" result="shape"/>
        </filter>
    </defs>
</svg>
