<svg width="123" height="55" viewBox="0 0 123 55" fill="none" xmlns="http://www.w3.org/2000/svg">
    <rect x="0.5" y="0.5" width="122" height="54" rx="9.5" fill="#8FC89B" fill-opacity="0.2" stroke="#8FC89B"/>
    <g filter="url(#filter0_d_6468_2733)">
        <path d="M14.3704 18.063C13.7917 18.063 13.388 17.9183 13.1594 17.629C12.9307 17.335 12.8164 16.8263 12.8164 16.103C12.8164 15.6783 12.989 15.466 13.3344 15.466C13.675 15.466 13.8454 15.6783 13.8454 16.103V16.355C13.8454 16.6257 13.885 16.8077 13.9644 16.901C14.0484 16.9897 14.2164 17.034 14.4684 17.034H17.0304C17.3617 17.034 17.658 16.9593 17.9194 16.81C18.1807 16.656 18.386 16.4553 18.5354 16.208C18.6847 15.9607 18.7594 15.6923 18.7594 15.403C18.7594 15.1277 18.687 14.878 18.5424 14.654C18.4024 14.43 18.204 14.2527 17.9474 14.122C17.6954 13.9867 17.4084 13.919 17.0864 13.919H15.8824C15.4437 13.919 15.2244 13.7487 15.2244 13.408C15.2244 13.0627 15.4437 12.89 15.8824 12.89H17.0864C17.4177 12.89 17.7094 12.834 17.9614 12.722C18.2134 12.6053 18.4094 12.4467 18.5494 12.246C18.6894 12.0453 18.7594 11.8143 18.7594 11.553C18.7594 11.2777 18.6847 11.028 18.5354 10.804C18.3907 10.5753 18.1877 10.3957 17.9264 10.265C17.6697 10.1297 17.371 10.062 17.0304 10.062H14.4684C14.2164 10.062 14.0484 10.1087 13.9644 10.202C13.885 10.2907 13.8454 10.468 13.8454 10.734V10.986C13.8454 11.4153 13.675 11.63 13.3344 11.63C12.989 11.63 12.8164 11.4153 12.8164 10.986C12.8164 10.2627 12.9307 9.75633 13.1594 9.467C13.388 9.17767 13.7917 9.033 14.3704 9.033H17.1284C17.651 9.033 18.1107 9.13567 18.5074 9.341C18.9087 9.54167 19.2214 9.824 19.4454 10.188C19.674 10.552 19.7884 10.9743 19.7884 11.455C19.7884 11.875 19.7067 12.2507 19.5434 12.582C19.3847 12.9133 19.149 13.1957 18.8364 13.429C19.149 13.6763 19.3847 13.9773 19.5434 14.332C19.7067 14.6867 19.7884 15.0763 19.7884 15.501C19.7884 15.9863 19.6717 16.4227 19.4384 16.81C19.2097 17.1973 18.8947 17.503 18.4934 17.727C18.092 17.951 17.637 18.063 17.1284 18.063H14.3704ZM27.277 18.161C27.1556 18.161 27.0623 18.1237 26.997 18.049C26.9316 17.9743 26.885 17.8273 26.857 17.608C26.8336 17.3887 26.822 17.0643 26.822 16.635L26.962 16.964C26.6773 17.3653 26.3203 17.65 25.891 17.818C25.4616 17.9813 24.953 18.063 24.365 18.063H23.063C22.5776 18.063 22.181 17.8997 21.873 17.573C21.5696 17.2417 21.418 16.74 21.418 16.068C21.418 15.6107 21.4926 15.235 21.642 14.941C21.7913 14.6423 22.013 14.4067 22.307 14.234C22.6056 14.0613 22.9673 13.94 23.392 13.87C23.8213 13.7953 24.3113 13.758 24.862 13.758H27.235L26.773 14.185V13.114C26.773 12.8807 26.731 12.722 26.647 12.638C26.5676 12.554 26.402 12.512 26.15 12.512H24.176C23.728 12.512 23.3803 12.5307 23.133 12.568C22.8856 12.6007 22.7106 12.6613 22.608 12.75C22.5053 12.834 22.4516 12.9483 22.447 13.093C22.433 13.3077 22.3933 13.4663 22.328 13.569C22.2673 13.6717 22.1343 13.723 21.929 13.723C21.5883 13.723 21.418 13.4967 21.418 13.044C21.418 12.5073 21.6396 12.113 22.083 11.861C22.531 11.609 23.196 11.483 24.078 11.483H26.248C26.8266 11.483 27.2303 11.6207 27.459 11.896C27.6876 12.1713 27.802 12.6543 27.802 13.345V17.552C27.802 17.958 27.627 18.161 27.277 18.161ZM23.098 17.076H24.365C25.2376 17.076 25.8583 16.8753 26.227 16.474C26.5956 16.0727 26.7776 15.4567 26.773 14.626L26.899 14.745H24.862C24.2786 14.745 23.8096 14.7777 23.455 14.843C23.1003 14.9037 22.8436 15.025 22.685 15.207C22.5263 15.389 22.447 15.6597 22.447 16.019C22.447 16.3643 22.5076 16.628 22.629 16.81C22.7503 16.9873 22.9066 17.076 23.098 17.076ZM29.7354 18.063V11.483H34.2924C35.0297 11.483 35.6154 11.6463 36.0494 11.973C36.488 12.295 36.7074 12.7547 36.7074 13.352C36.7074 13.688 36.6467 13.9657 36.5254 14.185C36.404 14.3997 36.229 14.5723 36.0004 14.703C36.4717 15.053 36.7074 15.5383 36.7074 16.159C36.7074 16.5697 36.607 16.9173 36.4064 17.202C36.2104 17.482 35.9304 17.6967 35.5664 17.846C35.207 17.9907 34.7824 18.063 34.2924 18.063H29.7354ZM30.7644 17.034H34.1944C35.1837 17.034 35.6784 16.7843 35.6784 16.285C35.6784 15.893 35.5664 15.6107 35.3424 15.438C35.123 15.2653 34.759 15.179 34.2504 15.179H30.7644V17.034ZM30.7644 14.15H34.2504C34.8104 14.15 35.1907 14.0917 35.3914 13.975C35.592 13.8583 35.6924 13.618 35.6924 13.254C35.6924 12.7593 35.193 12.512 34.1944 12.512H30.7644V14.15ZM41.7674 18.063C40.9321 18.063 40.2624 17.986 39.7584 17.832C39.2544 17.678 38.8881 17.4167 38.6594 17.048C38.4354 16.6747 38.3234 16.1637 38.3234 15.515V14.024C38.3234 13.38 38.4354 12.8737 38.6594 12.505C38.8881 12.1317 39.2544 11.868 39.7584 11.714C40.2624 11.56 40.9321 11.483 41.7674 11.483H42.1734C43.0087 11.483 43.6784 11.5623 44.1824 11.721C44.6864 11.875 45.0504 12.1387 45.2744 12.512C45.4984 12.8807 45.6104 13.3847 45.6104 14.024V14.717H39.3524V15.487C39.3524 15.9257 39.4131 16.257 39.5344 16.481C39.6557 16.7003 39.8891 16.8473 40.2344 16.922C40.5844 16.9967 41.0954 17.034 41.7674 17.034H43.8534C44.0961 17.034 44.2594 16.9873 44.3434 16.894C44.4321 16.796 44.4764 16.621 44.4764 16.369C44.4764 16.159 44.5231 15.9957 44.6164 15.879C44.7097 15.7623 44.8357 15.704 44.9944 15.704C45.1577 15.7087 45.2837 15.7717 45.3724 15.893C45.4611 16.0097 45.5054 16.1777 45.5054 16.397C45.5054 16.7563 45.4541 17.062 45.3514 17.314C45.2487 17.5613 45.0831 17.748 44.8544 17.874C44.6257 18 44.3247 18.063 43.9514 18.063H41.7674ZM39.3524 13.688H44.5744C44.5371 13.2213 44.3784 12.9133 44.0984 12.764C43.9304 12.6707 43.6831 12.6053 43.3564 12.568C43.0344 12.5307 42.6401 12.512 42.1734 12.512H41.7674C41.2774 12.512 40.8714 12.5307 40.5494 12.568C40.2274 12.6053 39.9847 12.6683 39.8214 12.757C39.5367 12.9063 39.3804 13.2167 39.3524 13.688ZM47.8348 20.611C47.4988 20.611 47.3308 20.3963 47.3308 19.967V11.994C47.3308 11.588 47.5058 11.385 47.8558 11.385C48.0378 11.385 48.1661 11.4433 48.2408 11.56C48.3154 11.672 48.3528 11.8657 48.3528 12.141V12.694L48.1708 12.449C48.4554 12.113 48.8171 11.868 49.2558 11.714C49.6944 11.56 50.2031 11.483 50.7818 11.483H51.1878C52.0231 11.483 52.6904 11.5623 53.1898 11.721C53.6938 11.875 54.0578 12.1387 54.2818 12.512C54.5058 12.8807 54.6178 13.3847 54.6178 14.024V15.515C54.6178 16.159 54.5058 16.6677 54.2818 17.041C54.0578 17.4097 53.6961 17.6733 53.1968 17.832C52.7021 17.986 52.0418 18.063 51.2158 18.063H48.3598V19.967C48.3598 20.3963 48.1848 20.611 47.8348 20.611ZM48.3598 17.034H51.2158C51.8784 17.034 52.3801 16.9967 52.7208 16.922C53.0614 16.8473 53.2901 16.7003 53.4068 16.481C53.5281 16.257 53.5888 15.9257 53.5888 15.487V14.059C53.5888 13.611 53.5258 13.2773 53.3998 13.058C53.2784 12.834 53.0451 12.687 52.6998 12.617C52.3544 12.547 51.8504 12.512 51.1878 12.512H50.7818C49.9604 12.512 49.3514 12.6987 48.9548 13.072C48.5581 13.4407 48.3598 14.0007 48.3598 14.752V17.034ZM56.4229 18.063V11.994C56.4229 11.588 56.5932 11.385 56.9339 11.385C57.2792 11.385 57.4519 11.588 57.4519 11.994V17.034H59.5449V11.994C59.5449 11.588 59.7175 11.385 60.0629 11.385C60.4035 11.385 60.5739 11.588 60.5739 11.994V17.034H62.6739V11.994C62.6739 11.588 62.8442 11.385 63.1849 11.385C63.5302 11.385 63.7029 11.588 63.7029 11.994V18.063H56.4229ZM70.2704 10.755C70.0511 10.755 69.8527 10.6827 69.6754 10.538C69.5027 10.3887 69.4164 10.2183 69.4164 10.027C69.4211 9.84033 69.5097 9.67467 69.6824 9.53C69.8597 9.38067 70.0581 9.306 70.2774 9.306C70.4967 9.306 70.6951 9.38067 70.8724 9.53C71.0544 9.67467 71.1454 9.84033 71.1454 10.027C71.1454 10.2137 71.0544 10.3817 70.8724 10.531C70.6904 10.6803 70.4897 10.755 70.2704 10.755ZM67.9744 10.755C67.7551 10.755 67.5567 10.6827 67.3794 10.538C67.2067 10.3887 67.1204 10.2183 67.1204 10.027C67.1251 9.84033 67.2137 9.67467 67.3864 9.53C67.5637 9.38067 67.7621 9.306 67.9814 9.306C68.2007 9.306 68.3991 9.38067 68.5764 9.53C68.7584 9.67467 68.8494 9.84033 68.8494 10.027C68.8494 10.2137 68.7584 10.3817 68.5764 10.531C68.3944 10.6803 68.1937 10.755 67.9744 10.755ZM68.9334 18.063C68.0981 18.063 67.4284 17.986 66.9244 17.832C66.4204 17.678 66.0541 17.4167 65.8254 17.048C65.6014 16.6747 65.4894 16.1637 65.4894 15.515V14.024C65.4894 13.38 65.6014 12.8737 65.8254 12.505C66.0541 12.1317 66.4204 11.868 66.9244 11.714C67.4284 11.56 68.0981 11.483 68.9334 11.483H69.3394C70.1747 11.483 70.8444 11.5623 71.3484 11.721C71.8524 11.875 72.2164 12.1387 72.4404 12.512C72.6644 12.8807 72.7764 13.3847 72.7764 14.024V14.717H66.5184V15.487C66.5184 15.9257 66.5791 16.257 66.7004 16.481C66.8217 16.7003 67.0551 16.8473 67.4004 16.922C67.7504 16.9967 68.2614 17.034 68.9334 17.034H71.0194C71.2621 17.034 71.4254 16.9873 71.5094 16.894C71.5981 16.796 71.6424 16.621 71.6424 16.369C71.6424 16.159 71.6891 15.9957 71.7824 15.879C71.8757 15.7623 72.0017 15.704 72.1604 15.704C72.3237 15.7087 72.4497 15.7717 72.5384 15.893C72.6271 16.0097 72.6714 16.1777 72.6714 16.397C72.6714 16.7563 72.6201 17.062 72.5174 17.314C72.4147 17.5613 72.2491 17.748 72.0204 17.874C71.7917 18 71.4907 18.063 71.1174 18.063H68.9334ZM66.5184 13.688H71.7404C71.7031 13.2213 71.5444 12.9133 71.2644 12.764C71.0964 12.6707 70.8491 12.6053 70.5224 12.568C70.2004 12.5307 69.8061 12.512 69.3394 12.512H68.9334C68.4434 12.512 68.0374 12.5307 67.7154 12.568C67.3934 12.6053 67.1507 12.6683 66.9874 12.757C66.7027 12.9063 66.5464 13.2167 66.5184 13.688ZM75.0078 18.161C74.6671 18.161 74.4968 17.958 74.4968 17.552V12.008C74.4968 11.5927 74.6578 11.385 74.9798 11.385C75.3438 11.385 75.5258 11.5927 75.5258 12.008V14.066H80.2998V12.008C80.2998 11.5927 80.4701 11.385 80.8108 11.385C81.1561 11.385 81.3288 11.5927 81.3288 12.008V17.552C81.3288 17.958 81.1561 18.161 80.8108 18.161C80.4701 18.161 80.2998 17.958 80.2998 17.552V15.095H75.5258V17.552C75.5258 17.958 75.3531 18.161 75.0078 18.161ZM83.8125 18.161C83.4718 18.161 83.3015 17.958 83.3015 17.552V12.008C83.3015 11.5927 83.4625 11.385 83.7845 11.385C84.1485 11.385 84.3305 11.5927 84.3305 12.008V14.066H89.1045V12.008C89.1045 11.5927 89.2748 11.385 89.6155 11.385C89.9608 11.385 90.1335 11.5927 90.1335 12.008V17.552C90.1335 17.958 89.9608 18.161 89.6155 18.161C89.2748 18.161 89.1045 17.958 89.1045 17.552V15.095H84.3305V17.552C84.3305 17.958 84.1578 18.161 83.8125 18.161ZM92.1201 18.063V12.008C92.1201 11.5927 92.2905 11.385 92.6311 11.385C92.9765 11.385 93.1491 11.5927 93.1491 12.008V14.15H96.1451C96.6445 14.15 97.0738 14.2247 97.4331 14.374C97.7925 14.5187 98.0701 14.7357 98.2661 15.025C98.4621 15.3143 98.5601 15.6737 98.5601 16.103C98.5601 16.5323 98.4621 16.8917 98.2661 17.181C98.0748 17.4703 97.7971 17.6873 97.4331 17.832C97.0738 17.9767 96.6445 18.0537 96.1451 18.063H92.1201ZM93.1491 17.034H96.0261C96.4508 17.034 96.8078 16.9733 97.0971 16.852C97.3865 16.726 97.5311 16.4927 97.5311 16.152C97.5311 15.872 97.4681 15.662 97.3421 15.522C97.2208 15.382 97.0458 15.291 96.8171 15.249C96.5931 15.2023 96.3295 15.179 96.0261 15.179H93.1491V17.034ZM99.5751 18.315C99.2391 18.315 99.0711 18.1167 99.0711 17.72V11.84C99.0711 11.6487 99.1155 11.4993 99.2041 11.392C99.2975 11.28 99.4235 11.224 99.5821 11.224C99.7455 11.224 99.8715 11.28 99.9601 11.392C100.053 11.4993 100.1 11.6487 100.1 11.84V17.72C100.1 18.1167 99.9251 18.315 99.5751 18.315ZM105.314 18.063C104.479 18.063 103.809 17.986 103.305 17.832C102.801 17.678 102.435 17.4167 102.206 17.048C101.982 16.6747 101.87 16.1637 101.87 15.515V14.024C101.87 13.38 101.982 12.8737 102.206 12.505C102.435 12.1317 102.801 11.868 103.305 11.714C103.809 11.56 104.479 11.483 105.314 11.483H105.72C106.556 11.483 107.225 11.5623 107.729 11.721C108.233 11.875 108.597 12.1387 108.821 12.512C109.045 12.8807 109.157 13.3847 109.157 14.024V14.717H102.899V15.487C102.899 15.9257 102.96 16.257 103.081 16.481C103.203 16.7003 103.436 16.8473 103.781 16.922C104.131 16.9967 104.642 17.034 105.314 17.034H107.4C107.643 17.034 107.806 16.9873 107.89 16.894C107.979 16.796 108.023 16.621 108.023 16.369C108.023 16.159 108.07 15.9957 108.163 15.879C108.257 15.7623 108.383 15.704 108.541 15.704C108.705 15.7087 108.831 15.7717 108.919 15.893C109.008 16.0097 109.052 16.1777 109.052 16.397C109.052 16.7563 109.001 17.062 108.898 17.314C108.796 17.5613 108.63 17.748 108.401 17.874C108.173 18 107.872 18.063 107.498 18.063H105.314ZM102.899 13.688H108.121C108.084 13.2213 107.925 12.9133 107.645 12.764C107.477 12.6707 107.23 12.6053 106.903 12.568C106.581 12.5307 106.187 12.512 105.72 12.512H105.314C104.824 12.512 104.418 12.5307 104.096 12.568C103.774 12.6053 103.532 12.6683 103.368 12.757C103.084 12.9063 102.927 13.2167 102.899 13.688Z"
              fill="#212121"/>
    </g>
    <path d="M31.0001 27.0832H47.0017V38.5413H49.002V25H29V49.9997H40.0009V47.9165H31.0001V27.0832Z" fill="#0F773D"/>
    <path d="M33 29.1665H45.0013V31.2497H33V29.1665ZM33 33.3333H43.0009V35.4165H33V33.3333ZM33 37.4997H39.0006V39.583H33V37.4997ZM45.9992 39.5833C43.2374 39.5833 40.9986 41.9152 40.9986 44.7916C40.9986 47.6681 43.2374 50 45.9992 50C48.7609 50 50.9997 47.6681 50.9997 44.7916C50.9997 41.9152 48.7609 39.5833 45.9992 39.5833ZM45.9992 47.9165C44.3447 47.9165 42.999 46.5146 42.999 44.7916C42.999 43.0684 44.345 41.6668 45.9992 41.6668C47.6536 41.6668 48.9993 43.0687 48.9993 44.7916C48.9993 46.5146 47.6533 47.9165 45.9992 47.9165Z"
          fill="#0F773D"/>
    <path d="M45.6413 45.0687L44.4777 43.9827L43.4766 45.1465L45.7742 47.2904L48.5904 43.916L47.4585 42.8906L45.6413 45.0687Z"
          fill="#0F773D"/>
    <defs>
        <filter id="filter0_d_6468_2733" x="9.81641" y="7.03296" width="104.342" height="19.578"
                filterUnits="userSpaceOnUse" color-interpolation-filters="sRGB">
            <feFlood flood-opacity="0" result="BackgroundImageFix"/>
            <feColorMatrix in="SourceAlpha" type="matrix" values="0 0 0 0 0 0 0 0 0 0 0 0 0 0 0 0 0 0 127 0"
                           result="hardAlpha"/>
            <feOffset dx="1" dy="2"/>
            <feGaussianBlur stdDeviation="2"/>
            <feComposite in2="hardAlpha" operator="out"/>
            <feColorMatrix type="matrix" values="0 0 0 0 0 0 0 0 0 0 0 0 0 0 0 0 0 0 0.25 0"/>
            <feBlend mode="normal" in2="BackgroundImageFix" result="effect1_dropShadow_6468_2733"/>
            <feBlend mode="normal" in="SourceGraphic" in2="effect1_dropShadow_6468_2733" result="shape"/>
        </filter>
    </defs>
</svg>
