<svg width="31" height="30" viewBox="0 0 31 30" fill="none" xmlns="http://www.w3.org/2000/svg">
    <path d="M14.2124 9.54503C14.2124 8.79192 14.8229 8.1814 15.576 8.1814C16.3291 8.1814 16.9396 8.79192 16.9396 9.54503V13.6359H21.0305C21.7837 13.6359 22.3942 14.2464 22.3942 14.9996C22.3942 15.7527 21.7837 16.3632 21.0305 16.3632H16.9396V20.4541C16.9396 21.2073 16.3291 21.8178 15.576 21.8178C14.8229 21.8178 14.2124 21.2073 14.2124 20.4541V16.3632H10.1214C9.36833 16.3632 8.75781 15.7527 8.75781 14.9996C8.75781 14.2464 9.36834 13.6359 10.1214 13.6359H14.2124V9.54503Z"
          fill="#1976D2"/>
    <path fill-rule="evenodd" clip-rule="evenodd"
          d="M30.5742 15C30.5742 23.2842 23.8584 30 15.5742 30C7.28995 30 0.574219 23.2842 0.574219 15C0.574219 6.71573 7.28995 0 15.5742 0C23.8584 0 30.5742 6.71573 30.5742 15ZM3.31081 15C3.31081 21.7729 8.80132 27.2635 15.5742 27.2635C22.3471 27.2635 27.8377 21.7729 27.8377 15C27.8377 8.2271 22.3471 2.73659 15.5742 2.73659C8.80132 2.73659 3.31081 8.2271 3.31081 15Z"
          fill="#1976D2"/>
</svg>
