<svg width="123" height="56" viewBox="0 0 123 56" fill="none" xmlns="http://www.w3.org/2000/svg">
    <rect x="0.5" y="0.671143" width="122" height="54" rx="9.5" fill="#8FC89B" fill-opacity="0.1" stroke="#8FC89B"/>
    <path d="M69.2893 31.0739H63.8545C63.7584 31.0739 63.6663 31.0373 63.5983 30.9722C63.5304 30.9071 63.4922 30.8188 63.4922 30.7267V25.5184C63.4922 25.4263 63.5304 25.338 63.5983 25.2728C63.6663 25.2077 63.7584 25.1711 63.8545 25.1711C63.9506 25.1711 64.0428 25.2077 64.1107 25.2728C64.1787 25.338 64.2168 25.4263 64.2168 25.5184V30.3795H69.2893C69.3854 30.3795 69.4775 30.4161 69.5455 30.4812C69.6134 30.5463 69.6516 30.6346 69.6516 30.7267C69.6516 30.8188 69.6134 30.9071 69.5455 30.9722C69.4775 31.0373 69.3854 31.0739 69.2893 31.0739Z"
          fill="#0F773D"/>
    <path d="M69.2908 34.5343C69.1947 34.5343 69.1025 34.4978 69.0346 34.4326C68.9666 34.3675 68.9284 34.2792 68.9284 34.1871V30.8704L63.706 25.8656H52.9864C52.602 25.8656 52.2334 26.0119 51.9616 26.2724C51.6898 26.5329 51.5371 26.8861 51.5371 27.2545V34.0718C51.5371 34.1639 51.499 34.2522 51.431 34.3174C51.3631 34.3825 51.2709 34.4191 51.1748 34.4191C51.0787 34.4191 50.9866 34.3825 50.9186 34.3174C50.8507 34.2522 50.8125 34.1639 50.8125 34.0718V27.2545C50.8125 26.7019 51.0415 26.172 51.4492 25.7813C51.8569 25.3906 52.4099 25.1711 52.9864 25.1711H63.856C63.9036 25.1711 63.9508 25.18 63.9948 25.1974C64.0388 25.2148 64.0788 25.2403 64.1125 25.2725L69.5473 30.4809C69.5809 30.5132 69.6076 30.5515 69.6257 30.5937C69.6439 30.6359 69.6532 30.6811 69.6531 30.7267V34.1871C69.6531 34.2327 69.6437 34.2779 69.6255 34.32C69.6073 34.3621 69.5806 34.4004 69.547 34.4326C69.5133 34.4649 69.4734 34.4905 69.4294 34.5079C69.3855 34.5254 69.3383 34.5343 69.2908 34.5343Z"
          fill="#0F773D"/>
    <path d="M67.4792 50.1711H52.9864C52.4099 50.1711 51.8569 49.9516 51.4492 49.5609C51.0415 49.1702 50.8125 48.6403 50.8125 48.0878V42.8794C50.8125 42.7874 50.8507 42.699 50.9186 42.6339C50.9866 42.5688 51.0787 42.5322 51.1748 42.5322C51.2709 42.5322 51.3631 42.5688 51.431 42.6339C51.499 42.699 51.5371 42.7874 51.5371 42.8794V48.0878C51.5371 48.4561 51.6898 48.8094 51.9616 49.0699C52.2334 49.3303 52.602 49.4767 52.9864 49.4767H67.4792C67.8635 49.4767 68.2322 49.3303 68.504 49.0699C68.7758 48.8094 68.9284 48.4561 68.9284 48.0878V42.8794C68.9284 42.7874 68.9666 42.699 69.0346 42.6339C69.1025 42.5688 69.1947 42.5322 69.2908 42.5322C69.3869 42.5322 69.479 42.5688 69.547 42.6339C69.6149 42.699 69.6531 42.7874 69.6531 42.8794V48.0878C69.6531 48.6403 69.424 49.1702 69.0164 49.5609C68.6087 49.9516 68.0557 50.1711 67.4792 50.1711Z"
          fill="#0F773D"/>
    <path d="M65.6674 43.2267H54.7979C54.7018 43.2267 54.6096 43.1901 54.5417 43.125C54.4737 43.0599 54.4355 42.9715 54.4355 42.8794C54.4355 42.7874 54.4737 42.699 54.5417 42.6339C54.6096 42.5688 54.7018 42.5322 54.7979 42.5322H65.6674C65.7635 42.5322 65.8557 42.5688 65.9236 42.6339C65.9916 42.699 66.0297 42.7874 66.0297 42.8794C66.0297 42.9715 65.9916 43.0599 65.9236 43.125C65.8557 43.1901 65.7635 43.2267 65.6674 43.2267Z"
          fill="#0F773D"/>
    <path d="M60.2326 46.699H54.7979C54.7018 46.699 54.6096 46.6624 54.5417 46.5973C54.4737 46.5321 54.4355 46.4438 54.4355 46.3517C54.4355 46.2596 54.4737 46.1713 54.5417 46.1062C54.6096 46.0411 54.7018 46.0045 54.7979 46.0045H60.2326C60.3287 46.0045 60.4209 46.0411 60.4888 46.1062C60.5568 46.1713 60.595 46.2596 60.595 46.3517C60.595 46.4438 60.5568 46.5321 60.4888 46.5973C60.4209 46.6624 60.3287 46.699 60.2326 46.699Z"
          fill="#0F773D"/>
    <path d="M69.2899 43.2267H51.1739C50.5974 43.2267 50.0444 43.0072 49.6367 42.6165C49.229 42.2258 49 41.6959 49 41.1434V35.8079C49 35.2554 49.229 34.7255 49.6367 34.3348C50.0444 33.9441 50.5974 33.7246 51.1739 33.7246H51.1884L69.3043 33.8399C69.878 33.845 70.4264 34.0666 70.8308 34.4565C71.2351 34.8465 71.4628 35.3735 71.4645 35.9232V41.1434C71.4645 41.417 71.4082 41.688 71.2989 41.9408C71.1896 42.1936 71.0295 42.4233 70.8275 42.6167C70.6256 42.8102 70.3858 42.9637 70.122 43.0683C69.8582 43.173 69.5754 43.2268 69.2899 43.2267ZM51.1739 34.4191C50.7895 34.4191 50.4209 34.5654 50.1491 34.8259C49.8773 35.0863 49.7246 35.4396 49.7246 35.8079V41.1434C49.7246 41.5117 49.8773 41.865 50.1491 42.1255C50.4209 42.3859 50.7895 42.5322 51.1739 42.5322H69.2899C69.6742 42.5322 70.0429 42.3859 70.3146 42.1255C70.5864 41.865 70.7391 41.5117 70.7391 41.1434V35.9232C70.738 35.5566 70.5861 35.2053 70.3165 34.9453C70.0468 34.6853 69.6811 34.5376 69.2985 34.5343L51.1826 34.4191H51.1739Z"
          fill="#0F773D"/>
    <path d="M56.7863 40.1712H54.2754V36.4684H56.7609V37.0191H54.9718V38.0226H56.4094V38.5594H54.9718V39.5955H56.7834L56.7863 40.1712Z"
          fill="#0F773D"/>
    <path d="M59.5204 40.1712H58.7827L58.1769 39.1733L57.516 40.1712H56.9609L57.9131 38.7608L57.0892 37.4316H57.8283L58.2979 38.2372L58.8327 37.4316H59.3733L58.5653 38.6198L59.5204 40.1712Z"
          fill="#0F773D"/>
    <path d="M61.4922 39.1649L62.0472 39.2191C61.9752 39.5626 61.8366 39.8173 61.6313 39.983C61.4212 40.1488 61.1555 40.2359 60.8835 40.2281C60.4888 40.2281 60.1854 40.0892 59.9733 39.8115C59.7547 39.5161 59.643 39.1602 59.6552 38.7983C59.6552 38.3858 59.7711 38.0448 60.003 37.7754C60.1145 37.6437 60.2564 37.5387 60.4175 37.4686C60.5786 37.3984 60.7545 37.3651 60.9313 37.3712C61.554 37.3712 61.9248 37.6858 62.0436 38.3149L61.4885 38.3879C61.4402 38.048 61.2656 37.8781 60.9646 37.8781C60.8653 37.8738 60.7669 37.8979 60.682 37.9474C60.5971 37.9968 60.5295 38.0694 60.4878 38.1559C60.3832 38.3633 60.3323 38.5917 60.3393 38.8219C60.3393 39.0997 60.3907 39.3131 60.4936 39.4622C60.5387 39.5333 60.6027 39.5917 60.6791 39.6312C60.7555 39.6708 60.8416 39.6901 60.9284 39.6872C61.212 39.6858 61.3999 39.5117 61.4922 39.1649Z"
          fill="#0F773D"/>
    <path d="M64.3618 39.2976L64.9415 39.3732C64.8681 39.6183 64.7131 39.8336 64.5002 39.9864C64.2617 40.1535 63.9714 40.2386 63.6763 40.2281C63.2801 40.2281 62.9613 40.1006 62.7197 39.8455C62.4782 39.5904 62.3574 39.245 62.3574 38.8094C62.3574 38.3955 62.4782 38.0529 62.7197 37.7816C62.9613 37.5103 63.2915 37.3746 63.7103 37.3746C64.118 37.3746 64.4321 37.5084 64.6524 37.776C64.8726 38.0436 64.984 38.3871 64.9864 38.8066V38.876H63.0292C63.0244 39.0271 63.043 39.178 63.0842 39.3239C63.1239 39.4405 63.1997 39.5428 63.3016 39.617C63.4192 39.7028 63.5641 39.747 63.7118 39.742C64.0325 39.7425 64.2492 39.5943 64.3618 39.2976ZM64.3219 38.4781C64.3284 38.2991 64.2618 38.1248 64.1364 37.992C64.079 37.9339 64.0101 37.8874 63.9336 37.8552C63.8572 37.8231 63.7748 37.8059 63.6913 37.8047C63.6079 37.8036 63.525 37.8184 63.4476 37.8484C63.3702 37.8785 63.2999 37.923 63.2408 37.9795C63.113 38.1162 63.0389 38.2913 63.0313 38.4746L64.3219 38.4781Z"
          fill="#0F773D"/>
    <path d="M66.2257 40.1712H65.5801V36.4684H66.2257V40.1712Z" fill="#0F773D"/>
    <path d="M74.498 24V31.2832" stroke="#0F773D" stroke-linecap="round" stroke-linejoin="round"/>
    <path d="M72 29.856L74.5 32L77 29.856" stroke="#0F773D" stroke-linecap="round" stroke-linejoin="round"/>
    <path d="M5.89337 18.3321C5.55737 18.3321 5.38937 18.1291 5.38937 17.7231V9.72914C5.38937 9.31381 5.56203 9.10614 5.90737 9.10614C6.24803 9.10614 6.41837 9.32314 6.41837 9.75714V16.4421L11.3324 9.43514C11.491 9.21581 11.673 9.10614 11.8784 9.10614C12.2004 9.10614 12.3614 9.31381 12.3614 9.72914V17.7231C12.3614 18.1291 12.191 18.3321 11.8504 18.3321C11.505 18.3321 11.3324 18.1385 11.3324 17.7511V10.9891L6.43237 18.0171C6.3437 18.1431 6.26203 18.2271 6.18737 18.2691C6.11737 18.3111 6.01937 18.3321 5.89337 18.3321ZM14.9755 18.3321C14.6349 18.3321 14.4645 18.1291 14.4645 17.7231V12.1791C14.4645 11.7638 14.6255 11.5561 14.9475 11.5561C15.1529 11.5561 15.3349 11.6658 15.4935 11.8851L18.0905 15.5951L20.7015 11.8851C20.8509 11.6658 21.0259 11.5561 21.2265 11.5561C21.5625 11.5561 21.7305 11.7638 21.7305 12.1791V17.7231C21.7305 18.1291 21.5579 18.3321 21.2125 18.3321C20.8719 18.3321 20.7015 18.1175 20.7015 17.6881V13.3761L18.4755 16.6101C18.3962 16.7221 18.2749 16.7781 18.1115 16.7781C18.0369 16.7781 17.9622 16.7665 17.8875 16.7431C17.8175 16.7151 17.7592 16.6708 17.7125 16.6101L15.4935 13.3761V17.6881C15.4935 18.1175 15.3209 18.3321 14.9755 18.3321ZM24.2181 18.3321C23.8727 18.3321 23.7001 18.1291 23.7001 17.7231V11.6541H30.5321V17.7231C30.5321 18.1291 30.3617 18.3321 30.0211 18.3321C29.6757 18.3321 29.5031 18.1291 29.5031 17.7231V12.6831H24.7291V17.7231C24.7291 18.1291 24.5587 18.3321 24.2181 18.3321ZM35.7664 18.2341C34.9311 18.2341 34.2614 18.1571 33.7574 18.0031C33.2534 17.8491 32.8871 17.5878 32.6584 17.2191C32.4344 16.8458 32.3224 16.3348 32.3224 15.6861V14.1951C32.3224 13.5511 32.4344 13.0448 32.6584 12.6761C32.8871 12.3028 33.2534 12.0391 33.7574 11.8851C34.2614 11.7311 34.9311 11.6541 35.7664 11.6541H36.1724C37.0077 11.6541 37.6774 11.7335 38.1814 11.8921C38.6854 12.0461 39.0494 12.3098 39.2734 12.6831C39.4974 13.0518 39.6094 13.5558 39.6094 14.1951V15.6861C39.6094 16.3301 39.4974 16.8388 39.2734 17.2121C39.0494 17.5808 38.6854 17.8445 38.1814 18.0031C37.6774 18.1571 37.0077 18.2341 36.1724 18.2341H35.7664ZM35.7664 17.2051H36.1724C36.8444 17.2051 37.3531 17.1678 37.6984 17.0931C38.0437 17.0185 38.2771 16.8715 38.3984 16.6521C38.5197 16.4281 38.5804 16.0968 38.5804 15.6581V14.2301C38.5804 13.7821 38.5174 13.4485 38.3914 13.2291C38.2654 13.0051 38.0297 12.8581 37.6844 12.7881C37.3391 12.7181 36.8351 12.6831 36.1724 12.6831H35.7664C35.0944 12.6831 34.5834 12.7181 34.2334 12.7881C33.8881 12.8581 33.6547 13.0051 33.5334 13.2291C33.4121 13.4485 33.3514 13.7821 33.3514 14.2301V15.6581C33.3514 16.0968 33.4121 16.4281 33.5334 16.6521C33.6547 16.8715 33.8881 17.0185 34.2334 17.0931C34.5834 17.1678 35.0944 17.2051 35.7664 17.2051ZM41.8885 20.7821C41.5525 20.7821 41.3845 20.5675 41.3845 20.1381V12.1651C41.3845 11.7591 41.5595 11.5561 41.9095 11.5561C42.0915 11.5561 42.2198 11.6145 42.2945 11.7311C42.3691 11.8431 42.4065 12.0368 42.4065 12.3121V12.8651L42.2245 12.6201C42.5091 12.2841 42.8708 12.0391 43.3095 11.8851C43.7481 11.7311 44.2568 11.6541 44.8355 11.6541H45.2415C46.0768 11.6541 46.7441 11.7335 47.2435 11.8921C47.7475 12.0461 48.1115 12.3098 48.3355 12.6831C48.5595 13.0518 48.6715 13.5558 48.6715 14.1951V15.6861C48.6715 16.3301 48.5595 16.8388 48.3355 17.2121C48.1115 17.5808 47.7498 17.8445 47.2505 18.0031C46.7558 18.1571 46.0955 18.2341 45.2695 18.2341H42.4135V20.1381C42.4135 20.5675 42.2385 20.7821 41.8885 20.7821ZM42.4135 17.2051H45.2695C45.9321 17.2051 46.4338 17.1678 46.7745 17.0931C47.1151 17.0185 47.3438 16.8715 47.4605 16.6521C47.5818 16.4281 47.6425 16.0968 47.6425 15.6581V14.2301C47.6425 13.7821 47.5795 13.4485 47.4535 13.2291C47.3321 13.0051 47.0988 12.8581 46.7535 12.7881C46.4081 12.7181 45.9041 12.6831 45.2415 12.6831H44.8355C44.0141 12.6831 43.4051 12.8698 43.0085 13.2431C42.6118 13.6118 42.4135 14.1718 42.4135 14.9231V17.2051ZM52.8916 18.3321C52.5183 18.3321 52.3316 18.1431 52.3316 17.7651V12.6831H50.2806C49.8699 12.6831 49.6646 12.5105 49.6646 12.1651C49.6646 11.8245 49.8699 11.6541 50.2806 11.6541H55.5096C55.9156 11.6541 56.1186 11.8245 56.1186 12.1651C56.1186 12.5105 55.9156 12.6831 55.5096 12.6831H53.4656V17.7651C53.4656 17.9378 53.4143 18.0755 53.3116 18.1781C53.2089 18.2808 53.0689 18.3321 52.8916 18.3321ZM67.7144 18.3321C67.3737 18.3321 67.2034 18.1128 67.2034 17.6741V13.1031L62.3944 18.2341H61.4004V12.1791C61.4004 11.7638 61.5707 11.5561 61.9114 11.5561C62.2567 11.5561 62.4294 11.7731 62.4294 12.2071V16.8341L67.2734 11.6541H68.2324V17.7091C68.2324 18.1245 68.0597 18.3321 67.7144 18.3321ZM71.5624 18.2341C70.9838 18.2341 70.5801 18.0895 70.3514 17.8001C70.1274 17.5061 70.0154 16.9975 70.0154 16.2741C70.0154 15.8495 70.1858 15.6371 70.5264 15.6371C70.8718 15.6371 71.0444 15.8495 71.0444 16.2741V16.5261C71.0444 16.7968 71.0841 16.9788 71.1634 17.0721C71.2474 17.1608 71.4131 17.2051 71.6604 17.2051H74.2224C75.3798 17.2051 75.9584 16.9765 75.9584 16.5191C75.9584 16.1038 75.8301 15.8051 75.5734 15.6231C75.3168 15.4411 74.8851 15.3501 74.2784 15.3501H73.0744C72.6404 15.3501 72.4234 15.1891 72.4234 14.8671C72.4234 14.5031 72.6404 14.3211 73.0744 14.3211H74.2784C74.7124 14.3211 75.0508 14.2955 75.2934 14.2441C75.5408 14.1881 75.7158 14.0901 75.8184 13.9501C75.9211 13.8101 75.9724 13.6141 75.9724 13.3621C75.9724 12.9095 75.3891 12.6831 74.2224 12.6831H71.6604C71.4131 12.6831 71.2474 12.7298 71.1634 12.8231C71.0841 12.9118 71.0444 13.0891 71.0444 13.3551V13.6071C71.0444 14.0365 70.8718 14.2511 70.5264 14.2511C70.1858 14.2511 70.0154 14.0365 70.0154 13.6071C70.0154 12.8838 70.1274 12.3775 70.3514 12.0881C70.5801 11.7988 70.9838 11.6541 71.5624 11.6541H74.3204C75.1744 11.6541 75.8324 11.8081 76.2944 12.1161C76.7564 12.4241 76.9874 12.8908 76.9874 13.5161C76.9874 13.8521 76.9268 14.1298 76.8054 14.3491C76.6841 14.5685 76.5091 14.7435 76.2804 14.8741C76.7518 15.2195 76.9874 15.7118 76.9874 16.3511C76.9874 16.9905 76.7564 17.4641 76.2944 17.7721C75.8324 18.0801 75.1744 18.2341 74.3204 18.2341H71.5624ZM83.8303 18.1711C83.4849 18.1711 83.3123 17.9985 83.3123 17.6531V9.35114C83.3123 9.00581 83.4849 8.83314 83.8303 8.83314H88.9263C89.2716 8.83314 89.4443 9.00581 89.4443 9.35114C89.4443 9.69181 89.2716 9.86214 88.9263 9.86214H84.3413V12.9421H87.2743C87.6196 12.9421 87.7923 13.1125 87.7923 13.4531C87.7923 13.7985 87.6196 13.9711 87.2743 13.9711H84.3413V17.1421H88.9263C89.2716 17.1421 89.4443 17.3125 89.4443 17.6531C89.4443 17.9985 89.2716 18.1711 88.9263 18.1711H83.8303ZM91.1084 18.0451C90.8377 17.8351 90.8027 17.5925 91.0034 17.3171L93.1174 14.4471L91.2974 12.0811C91.0781 11.8151 91.1084 11.5771 91.3884 11.3671C91.6544 11.1525 91.8924 11.1805 92.1024 11.4511L93.8384 13.7051L95.5884 11.4511C95.7937 11.1711 96.0341 11.1408 96.3094 11.3601C96.5801 11.5655 96.6127 11.8058 96.4074 12.0811L94.4824 14.5451L96.6174 17.3101C96.8181 17.5855 96.7901 17.8258 96.5334 18.0311C96.2534 18.2505 96.0107 18.2201 95.8054 17.9401L93.7684 15.3011L91.8294 17.9261C91.6194 18.2108 91.3791 18.2505 91.1084 18.0451ZM100.957 18.1711C100.047 18.1711 99.3728 17.9541 98.9341 17.5201C98.5001 17.0815 98.2831 16.4071 98.2831 15.4971V13.8871C98.2831 12.9771 98.4978 12.3051 98.9271 11.8711C99.3611 11.4371 100.038 11.2248 100.957 11.2341H102.105C102.796 11.2341 103.335 11.3508 103.722 11.5841C104.109 11.8175 104.352 12.1768 104.45 12.6621C104.483 12.8348 104.45 12.9678 104.352 13.0611C104.259 13.1545 104.123 13.2011 103.946 13.2011C103.787 13.2011 103.671 13.1615 103.596 13.0821C103.521 12.9981 103.456 12.8815 103.4 12.7321C103.335 12.5595 103.202 12.4381 103.001 12.3681C102.805 12.2981 102.506 12.2631 102.105 12.2631H100.957C100.332 12.2538 99.9001 12.3658 99.6621 12.5991C99.4288 12.8278 99.3121 13.2571 99.3121 13.8871V15.4971C99.3121 16.1271 99.4288 16.5588 99.6621 16.7921C99.9001 17.0255 100.332 17.1421 100.957 17.1421H102.105C102.506 17.1421 102.805 17.1071 103.001 17.0371C103.202 16.9671 103.335 16.8435 103.4 16.6661C103.456 16.5121 103.521 16.3955 103.596 16.3161C103.671 16.2368 103.79 16.1971 103.953 16.1971C104.126 16.1971 104.259 16.2461 104.352 16.3441C104.45 16.4375 104.483 16.5681 104.45 16.7361C104.352 17.2215 104.109 17.5831 103.722 17.8211C103.335 18.0545 102.796 18.1711 102.105 18.1711H100.957ZM107.584 15.1191V15.5111C107.584 16.1318 107.7 16.5588 107.934 16.7921C108.167 17.0255 108.599 17.1421 109.229 17.1421H110.377C110.89 17.1421 111.266 17.0885 111.504 16.9811C111.746 16.8691 111.903 16.6755 111.973 16.4001C112.01 16.2461 112.068 16.1271 112.148 16.0431C112.232 15.9591 112.355 15.9171 112.519 15.9171C112.691 15.9171 112.822 15.9638 112.911 16.0571C112.999 16.1458 113.03 16.2765 113.002 16.4491C112.913 17.0325 112.649 17.4665 112.211 17.7511C111.777 18.0311 111.165 18.1711 110.377 18.1711H109.229C108.319 18.1711 107.644 17.9541 107.206 17.5201C106.772 17.0861 106.555 16.4165 106.555 15.5111V13.9011C106.555 12.9771 106.772 12.3005 107.206 11.8711C107.644 11.4371 108.319 11.2248 109.229 11.2341H110.377C111.287 11.2341 111.959 11.4511 112.393 11.8851C112.827 12.3145 113.044 12.9865 113.044 13.9011V14.6011C113.044 14.9465 112.873 15.1191 112.533 15.1191H107.584ZM109.229 12.2631C108.599 12.2538 108.167 12.3658 107.934 12.5991C107.7 12.8325 107.584 13.2665 107.584 13.9011V14.0901H112.015V13.9011C112.015 13.2711 111.898 12.8418 111.665 12.6131C111.436 12.3798 111.007 12.2631 110.377 12.2631H109.229ZM117.615 18.1711C116.92 18.1711 116.404 18.0031 116.068 17.6671C115.732 17.3265 115.564 16.8085 115.564 16.1131V8.87514C115.564 8.53448 115.737 8.36414 116.082 8.36414C116.423 8.36414 116.593 8.53448 116.593 8.87514V16.1131C116.593 16.5191 116.661 16.7921 116.796 16.9321C116.936 17.0721 117.209 17.1421 117.615 17.1421C117.965 17.1421 118.14 17.3125 118.14 17.6531C118.15 17.9985 117.975 18.1711 117.615 18.1711Z"
          fill="black"/>
</svg>
