<svg width="123" height="56" viewBox="0 0 123 56" fill="none" xmlns="http://www.w3.org/2000/svg">
    <rect x="0.5" y="0.671143" width="122" height="54" rx="9.5" fill="#8FC89B" fill-opacity="0.1" stroke="#8FC89B"/>
    <path d="M9.31052 18.2341H7.33652C6.96785 18.2341 6.66918 18.1711 6.44052 18.0451C6.21652 17.9145 6.05085 17.7325 5.94352 17.4991C5.84085 17.2611 5.78952 16.9835 5.78952 16.6661C5.78952 16.4048 5.82685 16.2088 5.90152 16.0781C5.98085 15.9428 6.11385 15.8751 6.30052 15.8751C6.44985 15.8751 6.55952 15.9125 6.62952 15.9871C6.70418 16.0618 6.75318 16.1528 6.77652 16.2601C6.79985 16.3628 6.81385 16.4561 6.81852 16.5401C6.82785 16.6895 6.84418 16.8131 6.86752 16.9111C6.89085 17.0091 6.94218 17.0838 7.02152 17.1351C7.10552 17.1818 7.24318 17.2051 7.43452 17.2051H9.31052C9.81918 17.2051 10.2415 17.1841 10.5775 17.1421C10.9135 17.1001 11.1678 17.0091 11.3405 16.8691C11.4945 16.7478 11.5972 16.5868 11.6485 16.3861C11.7045 16.1808 11.7325 15.9265 11.7325 15.6231V14.0201H8.07852C7.65385 14.0201 7.44152 13.8451 7.44152 13.4951C7.44152 13.1591 7.65385 12.9911 8.07852 12.9911H11.7325V11.7801C11.7325 11.4488 11.7022 11.1875 11.6415 10.9961C11.5808 10.8048 11.4735 10.6531 11.3195 10.5411C11.1422 10.4105 10.8972 10.3265 10.5845 10.2891C10.2718 10.2518 9.84718 10.2331 9.31052 10.2331H7.43452C7.24318 10.2331 7.10552 10.2565 7.02152 10.3031C6.94218 10.3498 6.89085 10.4221 6.86752 10.5201C6.84418 10.6181 6.82785 10.7418 6.81852 10.8911C6.80452 11.0685 6.76485 11.2248 6.69952 11.3601C6.63418 11.4955 6.50118 11.5631 6.30052 11.5631C5.95985 11.5631 5.78952 11.2901 5.78952 10.7441C5.78952 10.4408 5.84085 10.1725 5.94352 9.93914C6.04618 9.70581 6.20952 9.52614 6.43352 9.40014C6.66218 9.26948 6.96318 9.20414 7.33652 9.20414H9.31052C10.1458 9.20414 10.8155 9.28348 11.3195 9.44214C11.8282 9.60081 12.1945 9.86681 12.4185 10.2401C12.6472 10.6135 12.7615 11.1268 12.7615 11.7801V15.6581C12.7615 16.3068 12.6472 16.8201 12.4185 17.1981C12.1945 17.5715 11.8282 17.8375 11.3195 17.9961C10.8155 18.1548 10.1458 18.2341 9.31052 18.2341ZM15.1805 18.3321C15.0265 18.3321 14.9028 18.2785 14.8095 18.1711C14.7208 18.0638 14.6765 17.9238 14.6765 17.7511V12.1371C14.6765 11.9551 14.7231 11.8128 14.8165 11.7101C14.9145 11.6075 15.0451 11.5561 15.2085 11.5561C15.3578 11.5561 15.4768 11.6098 15.5655 11.7171C15.6588 11.8198 15.7055 11.9598 15.7055 12.1371V14.4191H17.0985C17.2151 14.4191 17.3458 14.3421 17.4905 14.1881C17.6351 14.0295 17.8218 13.7751 18.0505 13.4251C18.2278 13.1545 18.4331 12.8745 18.6665 12.5851C18.8998 12.2958 19.2031 12.0485 19.5765 11.8431C19.9451 11.6425 20.3511 11.5421 20.7945 11.5421C20.9998 11.5421 21.1631 11.5865 21.2845 11.6751C21.4058 11.7638 21.4665 11.8898 21.4665 12.0531C21.4665 12.2351 21.4058 12.3681 21.2845 12.4521C21.1631 12.5315 21.0045 12.5711 20.8085 12.5711C20.5378 12.5758 20.2858 12.6738 20.0525 12.8651C19.8238 13.0565 19.5648 13.3621 19.2755 13.7821C19.1635 13.9501 19.0631 14.0971 18.9745 14.2231C18.8858 14.3445 18.8041 14.4518 18.7295 14.5451C18.6548 14.6385 18.5778 14.7248 18.4985 14.8041C18.8998 14.9768 19.2405 15.2055 19.5205 15.4901C19.8051 15.7701 20.0011 16.0595 20.1085 16.3581C20.2345 16.6708 20.3511 16.9065 20.4585 17.0651C20.5658 17.2191 20.6825 17.2985 20.8085 17.3031C20.9998 17.3031 21.1561 17.3475 21.2775 17.4361C21.4035 17.5248 21.4665 17.6508 21.4665 17.8141C21.4665 18.1595 21.2448 18.3321 20.8015 18.3321C20.4748 18.3321 20.1971 18.2691 19.9685 18.1431C19.7398 18.0171 19.5555 17.8421 19.4155 17.6181C19.2941 17.4408 19.1891 17.2588 19.1005 17.0721C19.0118 16.8808 18.9021 16.6895 18.7715 16.4981C18.6408 16.3021 18.4565 16.1131 18.2185 15.9311C17.8311 15.6091 17.2035 15.4481 16.3355 15.4481H15.7055V17.7651C15.7055 17.9378 15.6588 18.0755 15.5655 18.1781C15.4721 18.2808 15.3438 18.3321 15.1805 18.3321ZM26.2029 18.2341C25.3676 18.2341 24.6979 18.1571 24.1939 18.0031C23.6899 17.8491 23.3236 17.5878 23.0949 17.2191C22.8709 16.8458 22.7589 16.3348 22.7589 15.6861V14.1951C22.7589 13.5511 22.8709 13.0448 23.0949 12.6761C23.3236 12.3028 23.6899 12.0391 24.1939 11.8851C24.6979 11.7311 25.3676 11.6541 26.2029 11.6541H28.1909C28.5596 11.6541 28.8559 11.7195 29.0799 11.8501C29.3086 11.9761 29.4743 12.1605 29.5769 12.4031C29.6796 12.6458 29.7309 12.9375 29.7309 13.2781C29.7309 13.5208 29.6866 13.7051 29.5979 13.8311C29.5139 13.9525 29.3856 14.0131 29.2129 14.0131C29.0403 14.0131 28.9119 13.9525 28.8279 13.8311C28.7439 13.7051 28.7019 13.5465 28.7019 13.3551C28.6973 13.1171 28.6553 12.9468 28.5759 12.8441C28.5013 12.7368 28.3356 12.6831 28.0789 12.6831H26.2029C25.5309 12.6831 25.0199 12.7181 24.6699 12.7881C24.3246 12.8581 24.0913 13.0051 23.9699 13.2291C23.8486 13.4485 23.7879 13.7821 23.7879 14.2301V15.6581C23.7879 16.0968 23.8486 16.4281 23.9699 16.6521C24.0913 16.8715 24.3246 17.0185 24.6699 17.0931C25.0199 17.1678 25.5309 17.2051 26.2029 17.2051H28.0789C28.3403 17.2051 28.5083 17.1561 28.5829 17.0581C28.6576 16.9555 28.6973 16.7828 28.7019 16.5401C28.7019 16.3348 28.7463 16.1738 28.8349 16.0571C28.9236 15.9358 29.0473 15.8751 29.2059 15.8751C29.3693 15.8751 29.4976 15.9358 29.5909 16.0571C29.6843 16.1738 29.7309 16.3581 29.7309 16.6101C29.7309 16.9601 29.6773 17.2565 29.5699 17.4991C29.4673 17.7418 29.3016 17.9261 29.0729 18.0521C28.8443 18.1735 28.5456 18.2341 28.1769 18.2341H26.2029ZM32.0042 18.3321C31.6589 18.3321 31.4862 18.1291 31.4862 17.7231V11.6541H38.3182V17.7231C38.3182 18.1291 38.1479 18.3321 37.8072 18.3321C37.4619 18.3321 37.2892 18.1291 37.2892 17.7231V12.6831H32.5152V17.7231C32.5152 18.1291 32.3449 18.3321 32.0042 18.3321ZM43.5525 18.2341C42.7172 18.2341 42.0475 18.1571 41.5435 18.0031C41.0395 17.8491 40.6732 17.5878 40.4445 17.2191C40.2205 16.8458 40.1085 16.3348 40.1085 15.6861V14.1951C40.1085 13.5511 40.2205 13.0448 40.4445 12.6761C40.6732 12.3028 41.0395 12.0391 41.5435 11.8851C42.0475 11.7311 42.7172 11.6541 43.5525 11.6541H43.9585C44.7939 11.6541 45.4635 11.7335 45.9675 11.8921C46.4715 12.0461 46.8355 12.3098 47.0595 12.6831C47.2835 13.0518 47.3955 13.5558 47.3955 14.1951V15.6861C47.3955 16.3301 47.2835 16.8388 47.0595 17.2121C46.8355 17.5808 46.4715 17.8445 45.9675 18.0031C45.4635 18.1571 44.7939 18.2341 43.9585 18.2341H43.5525ZM43.5525 17.2051H43.9585C44.6305 17.2051 45.1392 17.1678 45.4845 17.0931C45.8299 17.0185 46.0632 16.8715 46.1845 16.6521C46.3059 16.4281 46.3665 16.0968 46.3665 15.6581V14.2301C46.3665 13.7821 46.3035 13.4485 46.1775 13.2291C46.0515 13.0051 45.8159 12.8581 45.4705 12.7881C45.1252 12.7181 44.6212 12.6831 43.9585 12.6831H43.5525C42.8805 12.6831 42.3695 12.7181 42.0195 12.7881C41.6742 12.8581 41.4409 13.0051 41.3195 13.2291C41.1982 13.4485 41.1375 13.7821 41.1375 14.2301V15.6581C41.1375 16.0968 41.1982 16.4281 41.3195 16.6521C41.4409 16.8715 41.6742 17.0185 42.0195 17.0931C42.3695 17.1678 42.8805 17.2051 43.5525 17.2051ZM49.6746 20.7821C49.3386 20.7821 49.1706 20.5675 49.1706 20.1381V12.1651C49.1706 11.7591 49.3456 11.5561 49.6956 11.5561C49.8776 11.5561 50.0059 11.6145 50.0806 11.7311C50.1553 11.8431 50.1926 12.0368 50.1926 12.3121V12.8651L50.0106 12.6201C50.2953 12.2841 50.6569 12.0391 51.0956 11.8851C51.5343 11.7311 52.0429 11.6541 52.6216 11.6541H53.0276C53.8629 11.6541 54.5303 11.7335 55.0296 11.8921C55.5336 12.0461 55.8976 12.3098 56.1216 12.6831C56.3456 13.0518 56.4576 13.5558 56.4576 14.1951V15.6861C56.4576 16.3301 56.3456 16.8388 56.1216 17.2121C55.8976 17.5808 55.5359 17.8445 55.0366 18.0031C54.5419 18.1571 53.8816 18.2341 53.0556 18.2341H50.1996V20.1381C50.1996 20.5675 50.0246 20.7821 49.6746 20.7821ZM50.1996 17.2051H53.0556C53.7183 17.2051 54.2199 17.1678 54.5606 17.0931C54.9013 17.0185 55.1299 16.8715 55.2466 16.6521C55.3679 16.4281 55.4286 16.0968 55.4286 15.6581V14.2301C55.4286 13.7821 55.3656 13.4485 55.2396 13.2291C55.1183 13.0051 54.8849 12.8581 54.5396 12.7881C54.1943 12.7181 53.6903 12.6831 53.0276 12.6831H52.6216C51.8003 12.6831 51.1913 12.8698 50.7946 13.2431C50.3979 13.6118 50.1996 14.1718 50.1996 14.9231V17.2051ZM60.6777 18.3321C60.3044 18.3321 60.1177 18.1431 60.1177 17.7651V12.6831H58.0667C57.6561 12.6831 57.4507 12.5105 57.4507 12.1651C57.4507 11.8245 57.6561 11.6541 58.0667 11.6541H63.2957C63.7017 11.6541 63.9047 11.8245 63.9047 12.1651C63.9047 12.5105 63.7017 12.6831 63.2957 12.6831H61.2517V17.7651C61.2517 17.9378 61.2004 18.0755 61.0977 18.1781C60.9951 18.2808 60.8551 18.3321 60.6777 18.3321ZM69.1865 18.2341V11.6541H73.7435C74.4809 11.6541 75.0665 11.8175 75.5005 12.1441C75.9392 12.4661 76.1585 12.9258 76.1585 13.5231C76.1585 13.8591 76.0979 14.1368 75.9765 14.3561C75.8552 14.5708 75.6802 14.7435 75.4515 14.8741C75.9229 15.2241 76.1585 15.7095 76.1585 16.3301C76.1585 16.7408 76.0582 17.0885 75.8575 17.3731C75.6615 17.6531 75.3815 17.8678 75.0175 18.0171C74.6582 18.1618 74.2335 18.2341 73.7435 18.2341H69.1865ZM70.2155 17.2051H73.6455C74.6349 17.2051 75.1295 16.9555 75.1295 16.4561C75.1295 16.0641 75.0175 15.7818 74.7935 15.6091C74.5742 15.4365 74.2102 15.3501 73.7015 15.3501H70.2155V17.2051ZM70.2155 14.3211H73.7015C74.2615 14.3211 74.6419 14.2628 74.8425 14.1461C75.0432 14.0295 75.1435 13.7891 75.1435 13.4251C75.1435 12.9305 74.6442 12.6831 73.6455 12.6831H70.2155V14.3211ZM83.0031 18.1711C82.6578 18.1711 82.4851 17.9985 82.4851 17.6531V9.35114C82.4851 9.00581 82.6578 8.83314 83.0031 8.83314H88.0991C88.4445 8.83314 88.6171 9.00581 88.6171 9.35114C88.6171 9.69181 88.4445 9.86214 88.0991 9.86214H83.5141V12.9421H86.4471C86.7925 12.9421 86.9651 13.1125 86.9651 13.4531C86.9651 13.7985 86.7925 13.9711 86.4471 13.9711H83.5141V17.1421H88.0991C88.4445 17.1421 88.6171 17.3125 88.6171 17.6531C88.6171 17.9985 88.4445 18.1711 88.0991 18.1711H83.0031ZM90.2813 18.0451C90.0106 17.8351 89.9756 17.5925 90.1763 17.3171L92.2903 14.4471L90.4703 12.0811C90.2509 11.8151 90.2813 11.5771 90.5613 11.3671C90.8273 11.1525 91.0653 11.1805 91.2753 11.4511L93.0113 13.7051L94.7613 11.4511C94.9666 11.1711 95.2069 11.1408 95.4823 11.3601C95.7529 11.5655 95.7856 11.8058 95.5803 12.0811L93.6553 14.5451L95.7903 17.3101C95.9909 17.5855 95.9629 17.8258 95.7063 18.0311C95.4263 18.2505 95.1836 18.2201 94.9783 17.9401L92.9413 15.3011L91.0023 17.9261C90.7923 18.2108 90.5519 18.2505 90.2813 18.0451ZM100.13 18.1711C99.2199 18.1711 98.5456 17.9541 98.1069 17.5201C97.6729 17.0815 97.4559 16.4071 97.4559 15.4971V13.8871C97.4559 12.9771 97.6706 12.3051 98.0999 11.8711C98.5339 11.4371 99.2106 11.2248 100.13 11.2341H101.278C101.969 11.2341 102.508 11.3508 102.895 11.5841C103.282 11.8175 103.525 12.1768 103.623 12.6621C103.656 12.8348 103.623 12.9678 103.525 13.0611C103.432 13.1545 103.296 13.2011 103.119 13.2011C102.96 13.2011 102.844 13.1615 102.769 13.0821C102.694 12.9981 102.629 12.8815 102.573 12.7321C102.508 12.5595 102.375 12.4381 102.174 12.3681C101.978 12.2981 101.679 12.2631 101.278 12.2631H100.13C99.5046 12.2538 99.0729 12.3658 98.8349 12.5991C98.6016 12.8278 98.4849 13.2571 98.4849 13.8871V15.4971C98.4849 16.1271 98.6016 16.5588 98.8349 16.7921C99.0729 17.0255 99.5046 17.1421 100.13 17.1421H101.278C101.679 17.1421 101.978 17.1071 102.174 17.0371C102.375 16.9671 102.508 16.8435 102.573 16.6661C102.629 16.5121 102.694 16.3955 102.769 16.3161C102.844 16.2368 102.963 16.1971 103.126 16.1971C103.299 16.1971 103.432 16.2461 103.525 16.3441C103.623 16.4375 103.656 16.5681 103.623 16.7361C103.525 17.2215 103.282 17.5831 102.895 17.8211C102.508 18.0545 101.969 18.1711 101.278 18.1711H100.13ZM106.756 15.1191V15.5111C106.756 16.1318 106.873 16.5588 107.106 16.7921C107.34 17.0255 107.771 17.1421 108.401 17.1421H109.549C110.063 17.1421 110.438 17.0885 110.676 16.9811C110.919 16.8691 111.075 16.6755 111.145 16.4001C111.183 16.2461 111.241 16.1271 111.32 16.0431C111.404 15.9591 111.528 15.9171 111.691 15.9171C111.864 15.9171 111.995 15.9638 112.083 16.0571C112.172 16.1458 112.202 16.2765 112.174 16.4491C112.086 17.0325 111.822 17.4665 111.383 17.7511C110.949 18.0311 110.338 18.1711 109.549 18.1711H108.401C107.491 18.1711 106.817 17.9541 106.378 17.5201C105.944 17.0861 105.727 16.4165 105.727 15.5111V13.9011C105.727 12.9771 105.944 12.3005 106.378 11.8711C106.817 11.4371 107.491 11.2248 108.401 11.2341H109.549C110.459 11.2341 111.131 11.4511 111.565 11.8851C111.999 12.3145 112.216 12.9865 112.216 13.9011V14.6011C112.216 14.9465 112.046 15.1191 111.705 15.1191H106.756ZM108.401 12.2631C107.771 12.2538 107.34 12.3658 107.106 12.5991C106.873 12.8325 106.756 13.2665 106.756 13.9011V14.0901H111.187V13.9011C111.187 13.2711 111.071 12.8418 110.837 12.6131C110.609 12.3798 110.179 12.2631 109.549 12.2631H108.401ZM116.788 18.1711C116.093 18.1711 115.577 18.0031 115.241 17.6671C114.905 17.3265 114.737 16.8085 114.737 16.1131V8.87514C114.737 8.53448 114.91 8.36414 115.255 8.36414C115.596 8.36414 115.766 8.53448 115.766 8.87514V16.1131C115.766 16.5191 115.834 16.7921 115.969 16.9321C116.109 17.0721 116.382 17.1421 116.788 17.1421C117.138 17.1421 117.313 17.3125 117.313 17.6531C117.322 17.9985 117.147 18.1711 116.788 18.1711Z"
          fill="black"/>
    <path d="M69.2893 31.0739H63.8545C63.7584 31.0739 63.6663 31.0373 63.5983 30.9722C63.5304 30.9071 63.4922 30.8188 63.4922 30.7267V25.5184C63.4922 25.4263 63.5304 25.338 63.5983 25.2728C63.6663 25.2077 63.7584 25.1711 63.8545 25.1711C63.9506 25.1711 64.0428 25.2077 64.1107 25.2728C64.1787 25.338 64.2168 25.4263 64.2168 25.5184V30.3795H69.2893C69.3854 30.3795 69.4775 30.4161 69.5455 30.4812C69.6134 30.5463 69.6516 30.6346 69.6516 30.7267C69.6516 30.8188 69.6134 30.9071 69.5455 30.9722C69.4775 31.0373 69.3854 31.0739 69.2893 31.0739Z"
          fill="#0F773D"/>
    <path d="M69.2908 34.5343C69.1947 34.5343 69.1025 34.4978 69.0346 34.4326C68.9666 34.3675 68.9284 34.2792 68.9284 34.1871V30.8704L63.706 25.8656H52.9864C52.602 25.8656 52.2334 26.0119 51.9616 26.2724C51.6898 26.5329 51.5371 26.8861 51.5371 27.2545V34.0718C51.5371 34.1639 51.499 34.2522 51.431 34.3174C51.3631 34.3825 51.2709 34.4191 51.1748 34.4191C51.0787 34.4191 50.9866 34.3825 50.9186 34.3174C50.8507 34.2522 50.8125 34.1639 50.8125 34.0718V27.2545C50.8125 26.7019 51.0415 26.172 51.4492 25.7813C51.8569 25.3906 52.4099 25.1711 52.9864 25.1711H63.856C63.9036 25.1711 63.9508 25.18 63.9948 25.1974C64.0388 25.2148 64.0788 25.2403 64.1125 25.2725L69.5473 30.4809C69.5809 30.5132 69.6076 30.5515 69.6257 30.5937C69.6439 30.6359 69.6532 30.6811 69.6531 30.7267V34.1871C69.6531 34.2327 69.6437 34.2779 69.6255 34.32C69.6073 34.3621 69.5806 34.4004 69.547 34.4326C69.5133 34.4649 69.4734 34.4905 69.4294 34.5079C69.3855 34.5254 69.3383 34.5343 69.2908 34.5343Z"
          fill="#0F773D"/>
    <path d="M67.4792 50.1711H52.9864C52.4099 50.1711 51.8569 49.9516 51.4492 49.5609C51.0415 49.1702 50.8125 48.6403 50.8125 48.0878V42.8794C50.8125 42.7874 50.8507 42.699 50.9186 42.6339C50.9866 42.5688 51.0787 42.5322 51.1748 42.5322C51.2709 42.5322 51.3631 42.5688 51.431 42.6339C51.499 42.699 51.5371 42.7874 51.5371 42.8794V48.0878C51.5371 48.4561 51.6898 48.8094 51.9616 49.0699C52.2334 49.3303 52.602 49.4767 52.9864 49.4767H67.4792C67.8635 49.4767 68.2322 49.3303 68.504 49.0699C68.7758 48.8094 68.9284 48.4561 68.9284 48.0878V42.8794C68.9284 42.7874 68.9666 42.699 69.0346 42.6339C69.1025 42.5688 69.1947 42.5322 69.2908 42.5322C69.3869 42.5322 69.479 42.5688 69.547 42.6339C69.6149 42.699 69.6531 42.7874 69.6531 42.8794V48.0878C69.6531 48.6403 69.424 49.1702 69.0164 49.5609C68.6087 49.9516 68.0557 50.1711 67.4792 50.1711Z"
          fill="#0F773D"/>
    <path d="M65.6674 43.2267H54.7979C54.7018 43.2267 54.6096 43.1901 54.5417 43.125C54.4737 43.0599 54.4355 42.9715 54.4355 42.8794C54.4355 42.7874 54.4737 42.699 54.5417 42.6339C54.6096 42.5688 54.7018 42.5322 54.7979 42.5322H65.6674C65.7635 42.5322 65.8557 42.5688 65.9236 42.6339C65.9916 42.699 66.0297 42.7874 66.0297 42.8794C66.0297 42.9715 65.9916 43.0599 65.9236 43.125C65.8557 43.1901 65.7635 43.2267 65.6674 43.2267Z"
          fill="#0F773D"/>
    <path d="M60.2326 46.699H54.7979C54.7018 46.699 54.6096 46.6624 54.5417 46.5973C54.4737 46.5321 54.4355 46.4438 54.4355 46.3517C54.4355 46.2596 54.4737 46.1713 54.5417 46.1062C54.6096 46.0411 54.7018 46.0045 54.7979 46.0045H60.2326C60.3287 46.0045 60.4209 46.0411 60.4888 46.1062C60.5568 46.1713 60.595 46.2596 60.595 46.3517C60.595 46.4438 60.5568 46.5321 60.4888 46.5973C60.4209 46.6624 60.3287 46.699 60.2326 46.699Z"
          fill="#0F773D"/>
    <path d="M69.2899 43.2267H51.1739C50.5974 43.2267 50.0444 43.0072 49.6367 42.6165C49.229 42.2258 49 41.6959 49 41.1434V35.8079C49 35.2554 49.229 34.7255 49.6367 34.3348C50.0444 33.9441 50.5974 33.7246 51.1739 33.7246H51.1884L69.3043 33.8399C69.878 33.845 70.4264 34.0666 70.8308 34.4565C71.2351 34.8465 71.4628 35.3735 71.4645 35.9232V41.1434C71.4645 41.417 71.4082 41.688 71.2989 41.9408C71.1896 42.1936 71.0295 42.4233 70.8275 42.6167C70.6256 42.8102 70.3858 42.9637 70.122 43.0683C69.8582 43.173 69.5754 43.2268 69.2899 43.2267ZM51.1739 34.4191C50.7895 34.4191 50.4209 34.5654 50.1491 34.8259C49.8773 35.0863 49.7246 35.4396 49.7246 35.8079V41.1434C49.7246 41.5117 49.8773 41.865 50.1491 42.1255C50.4209 42.3859 50.7895 42.5322 51.1739 42.5322H69.2899C69.6742 42.5322 70.0429 42.3859 70.3146 42.1255C70.5864 41.865 70.7391 41.5117 70.7391 41.1434V35.9232C70.738 35.5566 70.5861 35.2053 70.3165 34.9453C70.0468 34.6853 69.6811 34.5376 69.2985 34.5343L51.1826 34.4191H51.1739Z"
          fill="#0F773D"/>
    <path d="M56.7863 40.1712H54.2754V36.4684H56.7609V37.0191H54.9718V38.0226H56.4094V38.5594H54.9718V39.5955H56.7834L56.7863 40.1712Z"
          fill="#0F773D"/>
    <path d="M59.5204 40.1712H58.7827L58.1769 39.1733L57.516 40.1712H56.9609L57.9131 38.7608L57.0892 37.4316H57.8283L58.2979 38.2372L58.8327 37.4316H59.3733L58.5653 38.6198L59.5204 40.1712Z"
          fill="#0F773D"/>
    <path d="M61.4922 39.1649L62.0472 39.2191C61.9752 39.5626 61.8366 39.8173 61.6313 39.983C61.4212 40.1488 61.1555 40.2359 60.8835 40.2281C60.4888 40.2281 60.1854 40.0892 59.9733 39.8115C59.7547 39.5161 59.643 39.1602 59.6552 38.7983C59.6552 38.3858 59.7711 38.0448 60.003 37.7754C60.1145 37.6437 60.2564 37.5387 60.4175 37.4686C60.5786 37.3984 60.7545 37.3651 60.9313 37.3712C61.554 37.3712 61.9248 37.6858 62.0436 38.3149L61.4885 38.3879C61.4402 38.048 61.2656 37.8781 60.9646 37.8781C60.8653 37.8738 60.7669 37.8979 60.682 37.9474C60.5971 37.9968 60.5295 38.0694 60.4878 38.1559C60.3832 38.3633 60.3323 38.5917 60.3393 38.8219C60.3393 39.0997 60.3907 39.3131 60.4936 39.4622C60.5387 39.5333 60.6027 39.5917 60.6791 39.6312C60.7555 39.6708 60.8416 39.6901 60.9284 39.6872C61.212 39.6858 61.3999 39.5117 61.4922 39.1649Z"
          fill="#0F773D"/>
    <path d="M64.3618 39.2976L64.9415 39.3732C64.8681 39.6183 64.7131 39.8336 64.5002 39.9864C64.2617 40.1535 63.9714 40.2386 63.6763 40.2281C63.2801 40.2281 62.9613 40.1006 62.7197 39.8455C62.4782 39.5904 62.3574 39.245 62.3574 38.8094C62.3574 38.3955 62.4782 38.0529 62.7197 37.7816C62.9613 37.5103 63.2915 37.3746 63.7103 37.3746C64.118 37.3746 64.4321 37.5084 64.6524 37.776C64.8726 38.0436 64.984 38.3871 64.9864 38.8066V38.876H63.0292C63.0244 39.0271 63.043 39.178 63.0842 39.3239C63.1239 39.4405 63.1997 39.5428 63.3016 39.617C63.4192 39.7028 63.5641 39.747 63.7118 39.742C64.0325 39.7425 64.2492 39.5943 64.3618 39.2976ZM64.3219 38.4781C64.3284 38.2991 64.2618 38.1248 64.1364 37.992C64.079 37.9339 64.0101 37.8874 63.9336 37.8552C63.8572 37.8231 63.7748 37.8059 63.6913 37.8047C63.6079 37.8036 63.525 37.8184 63.4476 37.8484C63.3702 37.8785 63.2999 37.923 63.2408 37.9795C63.113 38.1162 63.0389 38.2913 63.0313 38.4746L64.3219 38.4781Z"
          fill="#0F773D"/>
    <path d="M66.2257 40.1712H65.5801V36.4684H66.2257V40.1712Z" fill="#0F773D"/>
    <path d="M72.875 33.1711V25.8879" stroke="#0F773D" stroke-linecap="round" stroke-linejoin="round"/>
    <path d="M75.377 27.3151L72.8769 25.1711L70.377 27.3151" stroke="#0F773D" stroke-linecap="round"
          stroke-linejoin="round"/>
</svg>
