<svg width="28" height="26" viewBox="0 0 28 26" fill="none" xmlns="http://www.w3.org/2000/svg">
    <path fill-rule="evenodd" clip-rule="evenodd"
          d="M22.6002 0.504377C22.2026 0.283524 21.694 0.414594 21.4645 0.797112L18.9216 5.03503C17.1892 4.26547 15.3958 3.872 13.5805 3.872C8.70282 3.872 3.98432 6.71439 0.179332 12.0578L0.164241 12.0789L0.151042 12.097C0.0243001 12.2692 0.0210647 12.4717 0.150408 12.6419C2.95814 16.5998 6.26669 19.1919 9.77057 20.2813L7.7449 23.6549C7.51526 24.0375 7.65153 24.5266 8.0492 24.7474L8.40925 24.9473C8.80692 25.1682 9.31541 25.0372 9.54504 24.6546L23.2645 1.79683C23.4942 1.41431 23.358 0.925193 22.9602 0.70433L22.6002 0.504377ZM17.8186 6.8728C16.4085 6.28368 14.9848 5.99652 13.5805 5.99652C10.0364 5.99652 6.36762 7.82563 3.1093 11.7223C2.79651 12.0964 2.79651 12.6417 3.1093 13.0158C5.55172 15.9369 8.22472 17.6965 10.903 18.3947L12.3035 16.0613C10.7037 15.5771 9.38075 14.2263 9.38075 12.3712C9.38075 10.0246 11.276 8.12208 13.6135 8.12208C14.6925 8.12208 15.6773 8.52746 16.4249 9.19471L17.8186 6.8728ZM15.2691 11.1205C14.9091 10.5908 14.3172 10.2466 13.6135 10.2466C12.4438 10.2466 11.4871 11.1963 11.4871 12.3696C11.4871 13.145 12.3634 14.0512 13.4643 14.1274L15.2691 11.1205Z"
          fill="black"/>
    <path d="M14.2852 20.848C18.9036 20.5903 23.3462 17.7832 26.9638 12.7159C27.0396 12.6097 27.0819 12.5 27.0819 12.3694C27.0819 12.2449 27.0455 12.1409 26.9734 12.0398C25.5831 10.089 24.0705 8.47264 22.4727 7.20694L21.3719 9.0411C22.2893 9.79079 23.1877 10.6831 24.0568 11.7226C24.3697 12.0967 24.3697 12.642 24.0568 13.0161C21.4359 16.1507 18.5494 17.9479 15.6759 18.5311L14.2852 20.848Z"
          fill="black"/>
</svg>
