<svg width="34" height="34" viewBox="0 0 34 34" fill="none" xmlns="http://www.w3.org/2000/svg">
    <path d="M32 5.75H28.6667M32 17H23.6667M32 28.25H23.6667M8.66667 32V19.9273C8.66667 19.5373 8.66667 19.3423 8.63263 19.1557C8.60245 18.9903 8.55252 18.8302 8.4842 18.6796C8.40718 18.5101 8.2989 18.3579 8.08232 18.0532L2.58435 10.3217C2.36777 10.0172 2.25948 9.86489 2.18247 9.69532C2.11415 9.54487 2.06422 9.38472 2.03403 9.21924C2 9.03271 2 8.83769 2 8.44766V5C2 3.94991 2 3.42485 2.18165 3.02377C2.34145 2.67097 2.59642 2.38413 2.91002 2.20436C3.26653 2 3.73325 2 4.66667 2H19.3333C20.2668 2 20.7335 2 21.09 2.20436C21.4037 2.38413 21.6585 2.67097 21.8183 3.02377C22 3.42485 22 3.94991 22 5V8.44766C22 8.83769 22 9.03271 21.966 9.21924C21.9358 9.38472 21.8858 9.54487 21.8175 9.69532C21.7405 9.86489 21.6322 10.0172 21.4157 10.3217L15.9177 18.0532C15.7012 18.3579 15.5928 18.5101 15.5158 18.6796C15.4475 18.8302 15.3975 18.9903 15.3673 19.1557C15.3333 19.3423 15.3333 19.5373 15.3333 19.9273V26.375L8.66667 32Z"
          stroke="#3B7F6F" stroke-width="3" stroke-linecap="round" stroke-linejoin="round"/>
</svg>
