<svg width="14" height="14" viewBox="0 0 14 14" fill="none" xmlns="http://www.w3.org/2000/svg">
    <path d="M5.45454 1.36364C5.45454 0.610527 6.06504 0 6.81818 0C7.57132 0 8.18182 0.610527 8.18182 1.36364V5.45455H12.2727C13.0259 5.45455 13.6364 6.06505 13.6364 6.81818C13.6364 7.57132 13.0259 8.18182 12.2727 8.18182H8.18182V12.2727C8.18182 13.0259 7.57132 13.6364 6.81818 13.6364C6.06504 13.6364 5.45454 13.0259 5.45454 12.2727V8.18182H1.36364C0.610514 8.18182 0 7.57132 0 6.81818C0 6.06505 0.610527 5.45455 1.36364 5.45455H5.45454V1.36364Z"
          fill="#1976D2"/>
</svg>
