<svg width="274" height="77" viewBox="0 0 274 77" fill="none" xmlns="http://www.w3.org/2000/svg">
<rect y="0.875" width="22.8571" height="75.25" rx="6" fill="#1976D2" fill-opacity="0.6"/>
<path d="M14.7679 28.192H18.3799V47.82H15.7759V30.432H15.1319C14.7586 30.432 14.4226 30.488 14.1239 30.6C13.8252 30.6933 13.5732 30.8613 13.3679 31.104C13.1812 31.328 13.0226 31.664 12.8919 32.112L9.3639 44.068C9.0839 45.0013 8.79457 45.748 8.4959 46.308C8.19723 46.8493 7.8239 47.2787 7.3759 47.596C6.9279 47.9133 6.3399 48.156 5.6119 48.324L4.2119 47.036C4.64123 46.8493 5.00523 46.6347 5.3039 46.392C5.60257 46.1493 5.85457 45.86 6.0599 45.524C6.26523 45.1693 6.44257 44.74 6.5919 44.236L10.2599 32.224C10.3719 31.8133 10.5119 31.3747 10.6799 30.908C10.8666 30.4413 11.1186 30.0027 11.4359 29.592C11.7532 29.1813 12.1732 28.8453 12.6959 28.584C13.2372 28.3227 13.9279 28.192 14.7679 28.192Z" fill="#E85154"/>
<path d="M43.3036 47.625H38.5786L29.3386 38.35L24.0186 42.2V47.625H20.5186V28.375H24.0186V38.175L37.7736 28.375H43.1286L32.0336 36.39L43.3036 47.625Z" fill="#E85154"/>
<path d="M67.6095 48.0514C67.0175 48.0514 66.7215 47.6954 66.7215 46.9834V34.1674H61.9935C61.4495 34.1674 61.0815 34.2474 60.8895 34.4074C60.6975 34.5594 60.6015 34.8554 60.6015 35.2954V44.6314C60.6015 45.4314 60.4975 46.0714 60.2895 46.5514C60.0815 47.0234 59.7535 47.3634 59.3055 47.5714C58.8575 47.7794 58.2775 47.8834 57.5655 47.8834C56.8135 47.8834 56.4375 47.5874 56.4375 46.9954C56.4375 46.4114 56.8135 46.1194 57.5655 46.1194C57.9815 46.1194 58.2615 46.0434 58.4055 45.8914C58.5495 45.7394 58.6215 45.4474 58.6215 45.0154V35.6434C58.6215 34.8274 58.7175 34.1834 58.9095 33.7114C59.1095 33.2394 59.4415 32.9034 59.9055 32.7034C60.3695 32.5034 61.0095 32.4034 61.8255 32.4034H68.4855V46.9834C68.4855 47.6954 68.1935 48.0514 67.6095 48.0514ZM83.9202 48.0514C83.3362 48.0514 83.0442 47.6754 83.0442 46.9234V39.0874L74.8002 47.8834H73.0962V37.5034C73.0962 36.7914 73.3882 36.4354 73.9722 36.4354C74.5642 36.4354 74.8602 36.8074 74.8602 37.5514V45.4834L83.1642 36.6034H84.8082V46.9834C84.8082 47.6954 84.5122 48.0514 83.9202 48.0514ZM100.021 50.0914C99.4368 50.0914 99.1448 49.7234 99.1448 48.9874V47.8834H89.1968V37.4794C89.1968 36.7834 89.4888 36.4354 90.0728 36.4354C90.6648 36.4354 90.9608 36.7834 90.9608 37.4794V46.1194H97.7528V37.4794C97.7528 36.7834 98.0448 36.4354 98.6288 36.4354C99.2208 36.4354 99.5168 36.7874 99.5168 37.4914V47.0194L98.8448 46.2274H99.4448C100.421 46.2434 100.909 46.7794 100.909 47.8354V48.9874C100.909 49.7234 100.613 50.0914 100.021 50.0914ZM105.897 47.7754C105.305 47.7754 105.009 47.4794 105.009 46.8874V32.6554C105.009 32.0634 105.305 31.7674 105.897 31.7674C106.481 31.7674 106.773 32.0634 106.773 32.6554V38.7514L113.229 32.1034C113.637 31.6714 114.049 31.6634 114.465 32.0794C114.897 32.4874 114.905 32.9034 114.489 33.3274L109.293 38.6794L115.413 46.2754C115.773 46.7394 115.733 47.1514 115.293 47.5114C114.837 47.8874 114.425 47.8474 114.057 47.3914L108.057 39.9634L106.773 41.2834V46.8874C106.773 47.4794 106.481 47.7754 105.897 47.7754ZM124.634 47.8834C123.202 47.8834 122.054 47.7514 121.19 47.4874C120.326 47.2234 119.698 46.7754 119.306 46.1434C118.922 45.5034 118.73 44.6274 118.73 43.5154V40.9594C118.73 39.8554 118.922 38.9874 119.306 38.3554C119.698 37.7154 120.326 37.2634 121.19 36.9994C122.054 36.7354 123.202 36.6034 124.634 36.6034H125.33C126.762 36.6034 127.91 36.7394 128.774 37.0114C129.638 37.2754 130.262 37.7274 130.646 38.3674C131.03 38.9994 131.222 39.8634 131.222 40.9594V43.5154C131.222 44.6194 131.03 45.4914 130.646 46.1314C130.262 46.7634 129.638 47.2154 128.774 47.4874C127.91 47.7514 126.762 47.8834 125.33 47.8834H124.634ZM124.634 46.1194H125.33C126.482 46.1194 127.354 46.0554 127.946 45.9274C128.538 45.7994 128.938 45.5474 129.146 45.1714C129.354 44.7874 129.458 44.2194 129.458 43.4674V41.0194C129.458 40.2514 129.35 39.6794 129.134 39.3034C128.918 38.9194 128.514 38.6674 127.922 38.5474C127.33 38.4274 126.466 38.3674 125.33 38.3674H124.634C123.482 38.3674 122.606 38.4274 122.006 38.5474C121.414 38.6674 121.014 38.9194 120.806 39.3034C120.598 39.6794 120.494 40.2514 120.494 41.0194V43.4674C120.494 44.2194 120.598 44.7874 120.806 45.1714C121.014 45.5474 121.414 45.7994 122.006 45.9274C122.606 46.0554 123.482 46.1194 124.634 46.1194ZM136.101 48.0514C135.517 48.0514 135.225 47.7034 135.225 47.0074V37.5034C135.225 36.7914 135.501 36.4354 136.053 36.4354C136.677 36.4354 136.989 36.7914 136.989 37.5034V41.0314H145.173V37.5034C145.173 36.7914 145.465 36.4354 146.049 36.4354C146.641 36.4354 146.937 36.7914 146.937 37.5034V47.0074C146.937 47.7034 146.641 48.0514 146.049 48.0514C145.465 48.0514 145.173 47.7034 145.173 47.0074V42.7954H136.989V47.0074C136.989 47.7034 136.693 48.0514 136.101 48.0514ZM155.442 48.0514C154.802 48.0514 154.482 47.7274 154.482 47.0794V38.3674H150.966C150.262 38.3674 149.91 38.0714 149.91 37.4794C149.91 36.8954 150.262 36.6034 150.966 36.6034H159.93C160.626 36.6034 160.974 36.8954 160.974 37.4794C160.974 38.0714 160.626 38.3674 159.93 38.3674H156.426V47.0794C156.426 47.3754 156.338 47.6114 156.162 47.7874C155.986 47.9634 155.746 48.0514 155.442 48.0514ZM164.798 52.2514C164.222 52.2514 163.934 51.8834 163.934 51.1474V37.4794C163.934 36.7834 164.234 36.4354 164.834 36.4354C165.146 36.4354 165.366 36.5354 165.494 36.7354C165.622 36.9274 165.686 37.2594 165.686 37.7314V38.6794L165.374 38.2594C165.862 37.6834 166.482 37.2634 167.234 36.9994C167.986 36.7354 168.858 36.6034 169.85 36.6034H170.546C171.978 36.6034 173.122 36.7394 173.978 37.0114C174.842 37.2754 175.466 37.7274 175.85 38.3674C176.234 38.9994 176.426 39.8634 176.426 40.9594V43.5154C176.426 44.6194 176.234 45.4914 175.85 46.1314C175.466 46.7634 174.846 47.2154 173.99 47.4874C173.142 47.7514 172.01 47.8834 170.594 47.8834H165.698V51.1474C165.698 51.8834 165.398 52.2514 164.798 52.2514ZM165.698 46.1194H170.594C171.73 46.1194 172.59 46.0554 173.174 45.9274C173.758 45.7994 174.15 45.5474 174.35 45.1714C174.558 44.7874 174.662 44.2194 174.662 43.4674V41.0194C174.662 40.2514 174.554 39.6794 174.338 39.3034C174.13 38.9194 173.73 38.6674 173.138 38.5474C172.546 38.4274 171.682 38.3674 170.546 38.3674H169.85C168.442 38.3674 167.398 38.6874 166.718 39.3274C166.038 39.9594 165.698 40.9194 165.698 42.2074V46.1194ZM186.036 47.8834C184.604 47.8834 183.456 47.7514 182.592 47.4874C181.728 47.2234 181.1 46.7754 180.708 46.1434C180.324 45.5034 180.132 44.6274 180.132 43.5154V40.9594C180.132 39.8554 180.324 38.9874 180.708 38.3554C181.1 37.7154 181.728 37.2634 182.592 36.9994C183.456 36.7354 184.604 36.6034 186.036 36.6034H186.732C188.164 36.6034 189.312 36.7394 190.176 37.0114C191.04 37.2754 191.664 37.7274 192.048 38.3674C192.432 38.9994 192.624 39.8634 192.624 40.9594V43.5154C192.624 44.6194 192.432 45.4914 192.048 46.1314C191.664 46.7634 191.04 47.2154 190.176 47.4874C189.312 47.7514 188.164 47.8834 186.732 47.8834H186.036ZM186.036 46.1194H186.732C187.884 46.1194 188.756 46.0554 189.348 45.9274C189.94 45.7994 190.34 45.5474 190.548 45.1714C190.756 44.7874 190.86 44.2194 190.86 43.4674V41.0194C190.86 40.2514 190.752 39.6794 190.536 39.3034C190.32 38.9194 189.916 38.6674 189.324 38.5474C188.732 38.4274 187.868 38.3674 186.732 38.3674H186.036C184.884 38.3674 184.008 38.4274 183.408 38.5474C182.816 38.6674 182.416 38.9194 182.208 39.3034C182 39.6794 181.896 40.2514 181.896 41.0194V43.4674C181.896 44.2194 182 44.7874 182.208 45.1714C182.416 45.5474 182.816 45.7994 183.408 45.9274C184.008 46.0554 184.884 46.1194 186.036 46.1194ZM206.623 48.0514C206.039 48.0514 205.747 47.6954 205.747 46.9834V38.3674H200.899C200.363 38.3674 200.003 38.4474 199.819 38.6074C199.643 38.7594 199.555 39.0554 199.555 39.4954V44.6914C199.555 45.4754 199.455 46.1034 199.255 46.5754C199.055 47.0394 198.743 47.3754 198.319 47.5834C197.895 47.7914 197.351 47.8954 196.687 47.8954C196.311 47.8954 196.007 47.8314 195.775 47.7034C195.551 47.5674 195.439 47.3314 195.439 46.9954C195.439 46.4114 195.823 46.1194 196.591 46.1194C197.039 46.1194 197.351 46.0394 197.527 45.8794C197.703 45.7194 197.791 45.4314 197.791 45.0154V39.7954C197.791 38.9714 197.875 38.3274 198.043 37.8634C198.219 37.3994 198.519 37.0754 198.943 36.8914C199.375 36.6994 199.967 36.6034 200.719 36.6034H207.511V46.9594C207.511 47.6874 207.215 48.0514 206.623 48.0514ZM211.885 47.8834V37.5034C211.885 36.7914 212.177 36.4354 212.761 36.4354C213.353 36.4354 213.649 36.7914 213.649 37.5034V41.1754H218.785C219.641 41.1754 220.377 41.3034 220.993 41.5594C221.609 41.8074 222.085 42.1794 222.421 42.6754C222.757 43.1714 222.925 43.7874 222.925 44.5234C222.925 45.2594 222.757 45.8754 222.421 46.3714C222.093 46.8674 221.617 47.2394 220.993 47.4874C220.377 47.7354 219.641 47.8674 218.785 47.8834H211.885ZM213.649 46.1194H218.581C219.317 46.1194 219.929 46.0154 220.417 45.8074C220.913 45.5914 221.161 45.1914 221.161 44.6074C221.161 44.1274 221.053 43.7674 220.837 43.5274C220.629 43.2874 220.329 43.1314 219.937 43.0594C219.553 42.9794 219.101 42.9394 218.581 42.9394H213.649V46.1194ZM227.413 47.7754C226.829 47.7754 226.537 47.4834 226.537 46.8994V46.3474C226.537 45.7794 226.829 45.4954 227.413 45.4954H227.941C228.501 45.4954 228.781 45.7794 228.781 46.3474V46.8994C228.781 47.4834 228.501 47.7754 227.941 47.7754H227.413ZM234.478 48.0514C233.886 48.0514 233.59 47.7194 233.59 47.0554V33.3994C233.59 32.6714 233.87 32.3074 234.43 32.3074H238.918C240.886 32.3074 242.314 32.5994 243.202 33.1834C244.09 33.7594 244.534 34.7234 244.534 36.0754C244.534 37.3634 244.154 38.3514 243.394 39.0394C242.634 39.7194 241.514 40.0594 240.034 40.0594H235.354V47.0554C235.354 47.7194 235.062 48.0514 234.478 48.0514ZM235.354 38.2954H238.918C239.822 38.2954 240.558 38.2514 241.126 38.1634C241.694 38.0754 242.11 37.8794 242.374 37.5754C242.638 37.2714 242.77 36.7954 242.77 36.1474C242.77 35.5874 242.658 35.1594 242.434 34.8634C242.21 34.5674 241.818 34.3634 241.258 34.2514C240.698 34.1314 239.918 34.0714 238.918 34.0714H235.354V38.2954ZM253.161 48.0514C252.849 48.0514 252.613 47.9594 252.453 47.7754C252.293 47.5914 252.213 47.3514 252.213 47.0554V46.0834C250.645 45.8994 249.405 45.2954 248.493 44.2714C247.581 43.2474 247.125 41.9194 247.125 40.2874V39.9994C247.125 38.3674 247.581 37.0394 248.493 36.0154C249.405 34.9914 250.645 34.3874 252.213 34.2034V33.2074C252.213 32.5594 252.525 32.2354 253.149 32.2354C253.781 32.2354 254.097 32.5714 254.097 33.2434V34.2034C255.625 34.4034 256.837 35.0154 257.733 36.0394C258.629 37.0634 259.077 38.3834 259.077 39.9994V40.2874C259.077 41.8874 258.629 43.2034 257.733 44.2354C256.837 45.2594 255.625 45.8754 254.097 46.0834V47.0554C254.097 47.7194 253.785 48.0514 253.161 48.0514ZM252.213 44.4874V35.7994C251.141 35.9354 250.317 36.3674 249.741 37.0954C249.173 37.8154 248.889 38.7834 248.889 39.9994V40.2874C248.889 41.5194 249.169 42.4874 249.729 43.1914C250.289 43.8954 251.117 44.3274 252.213 44.4874ZM254.097 44.4634C255.129 44.3194 255.921 43.8834 256.473 43.1554C257.033 42.4274 257.313 41.4714 257.313 40.2874V39.9994C257.313 38.8154 257.033 37.8634 256.473 37.1434C255.921 36.4234 255.129 35.9794 254.097 35.8114V44.4634Z" fill="#212121"/>
<rect x="131" y="55.5503" width="100" height="2.15" rx="1.075" fill="#E85154"/>
<g style="mix-blend-mode:darken">
<rect x="45" y="19" width="50.2667" height="2.15" rx="1.075" fill="#1976D2"/>
</g>
</svg>