<svg width="6" height="34" viewBox="0 0 6 34" fill="none" xmlns="http://www.w3.org/2000/svg">
    <path d="M3.144 27.52C1.976 27.52 1.392 26.936 1.392 25.768V2.08C1.392 0.911998 1.976 0.327997 3.144 0.327997C4.328 0.327997 4.92 0.911998 4.92 2.08V25.768C4.92 26.936 4.328 27.52 3.144 27.52ZM2.616 34C1.448 34 0.864 33.416 0.864 32.248V31.144C0.864 30.008 1.448 29.44 2.616 29.44H3.672C4.792 29.44 5.352 30.008 5.352 31.144V32.248C5.352 33.416 4.792 34 3.672 34H2.616Z"
          fill="#E85154"/>
</svg>
